<?xml version="1.0" encoding="UTF-8" standalone="no"?>
<!DOCTYPE svg PUBLIC "-//W3C//DTD SVG 1.1//EN" "http://www.w3.org/Graphics/SVG/1.1/DTD/svg11.dtd">
<svg width="100%" height="100%" viewBox="0 0 297 292" version="1.1" xmlns="http://www.w3.org/2000/svg" xmlns:xlink="http://www.w3.org/1999/xlink" xml:space="preserve" xmlns:serif="http://www.serif.com/" style="fill-rule:evenodd;clip-rule:evenodd;stroke-linecap:round;stroke-linejoin:round;stroke-miterlimit:1.5;">
    <g transform="matrix(1,0,0,1,-4365.83,-393.904)">
        <g transform="matrix(1,0,0,1,4267.39,74.171)">
            <g transform="matrix(1,0,0,1,-158.325,115.272)">
                <g transform="matrix(0.798765,0,0,0.798765,209.047,124.779)">
                    <g transform="matrix(0.370988,0,0,0.370988,-95.8584,126.361)">
                        <g transform="matrix(1,0,0,1,-4267.39,-74.171)">
                            <path d="M5000.04,237.649C5000.62,223.406 4997.57,212.355 4991.99,204.701C4975.3,181.798 4935.78,184.156 4931.57,184.192C4884.34,184.597 4861.06,225.363 4860.75,255.464C4860.57,272.353 4868.35,302.518 4875.93,329.814C4883.12,355.733 4890.02,379.051 4893.59,386.511C4901.14,402.267 4921.53,416.795 4941.29,416.322C4959.74,415.88 4989.82,406.156 4990.22,371.883C4990.56,343.842 4968.57,336.2 4967.68,319.101C4966.35,293.612 4998.32,280.231 5000.04,237.649Z" style="fill:none;stroke:black;stroke-width:3.29px;"/>
                        </g>
                        <g transform="matrix(20.5728,-0.931826,0.0466973,1.03098,-101615,4556.27)">
                            <ellipse cx="4973.27" cy="151.915" rx="1.212" ry="28.799" style="fill:none;stroke:black;stroke-width:0.23px;"/>
                        </g>
                        <g transform="matrix(12.245,-0.554626,0.0301027,0.61354,-60241.6,2746.39)">
                            <ellipse cx="4973.27" cy="151.915" rx="1.212" ry="28.799" style="fill:none;stroke:black;stroke-width:0.38px;"/>
                        </g>
                        <g transform="matrix(9.40121,-0.425818,0.050417,0.4785,-46130.6,2138.28)">
                            <ellipse cx="4973.27" cy="151.915" rx="1.212" ry="28.799" style="fill:none;stroke:black;stroke-width:0.49px;"/>
                        </g>
                        <g transform="matrix(8.76722,-0.397103,0.0399178,0.378853,-42999.3,2026.72)">
                            <ellipse cx="4973.27" cy="151.915" rx="1.212" ry="28.799" style="fill:none;stroke:black;stroke-width:0.53px;"/>
                        </g>
                        <g transform="matrix(6.64852,-0.301138,0.0201992,0.280516,-32473.2,1582.61)">
                            <ellipse cx="4973.27" cy="151.915" rx="1.212" ry="28.799" style="fill:none;stroke:black;stroke-width:0.7px;"/>
                        </g>
                    </g>
                    <g transform="matrix(-0.370988,0,0,0.370988,460.885,180.749)">
                        <g transform="matrix(1,0,0,1,-4267.39,-74.171)">
                            <path d="M5000.04,237.649C5000.62,223.406 4997.57,212.355 4991.99,204.701C4975.3,181.798 4935.78,184.156 4931.57,184.192C4884.34,184.597 4861.06,225.363 4860.75,255.464C4860.57,272.353 4868.35,302.518 4875.93,329.814C4883.12,355.733 4890.02,379.051 4893.59,386.511C4901.14,402.267 4921.53,416.795 4941.29,416.322C4959.74,415.88 4989.82,406.156 4990.22,371.883C4990.56,343.842 4968.57,336.2 4967.68,319.101C4966.35,293.612 4998.32,280.231 5000.04,237.649Z" style="fill:none;stroke:black;stroke-width:3.29px;"/>
                        </g>
                        <g transform="matrix(20.5728,-0.931826,0.0466973,1.03098,-101615,4556.27)">
                            <ellipse cx="4973.27" cy="151.915" rx="1.212" ry="28.799" style="fill:none;stroke:black;stroke-width:0.23px;"/>
                        </g>
                        <g transform="matrix(12.245,-0.554626,0.0301027,0.61354,-60241.6,2746.39)">
                            <ellipse cx="4973.27" cy="151.915" rx="1.212" ry="28.799" style="fill:none;stroke:black;stroke-width:0.38px;"/>
                        </g>
                        <g transform="matrix(9.40121,-0.425818,0.050417,0.4785,-46130.6,2138.28)">
                            <ellipse cx="4973.27" cy="151.915" rx="1.212" ry="28.799" style="fill:none;stroke:black;stroke-width:0.49px;"/>
                        </g>
                        <g transform="matrix(8.76722,-0.397103,0.0399178,0.378853,-42999.3,2026.72)">
                            <ellipse cx="4973.27" cy="151.915" rx="1.212" ry="28.799" style="fill:none;stroke:black;stroke-width:0.53px;"/>
                        </g>
                        <g transform="matrix(6.64852,-0.301138,0.0201992,0.280516,-32473.2,1582.61)">
                            <ellipse cx="4973.27" cy="151.915" rx="1.212" ry="28.799" style="fill:none;stroke:black;stroke-width:0.7px;"/>
                        </g>
                    </g>
                </g>
                <g transform="matrix(0.798765,0,0,0.798765,215.133,128.048)">
                    <g transform="matrix(0.370988,0,0,0.370988,-105.961,119.716)">
                        <g transform="matrix(1,0,0,1,-4267.39,-74.171)">
                            <path d="M5000.04,237.649C5000.62,223.406 4997.57,212.355 4991.99,204.701C4975.3,181.798 4935.78,184.156 4931.57,184.192C4884.34,184.597 4861.06,225.363 4860.75,255.464C4860.57,272.353 4868.35,302.518 4875.93,329.814C4883.12,355.733 4890.02,379.051 4893.59,386.511C4901.14,402.267 4921.53,416.795 4941.29,416.322C4959.74,415.88 4989.82,406.156 4990.22,371.883C4990.56,343.842 4968.57,336.2 4967.68,319.101C4966.35,293.612 4998.32,280.231 5000.04,237.649Z" style="fill:rgb(10,152,133);"/>
                        </g>
                        <g transform="matrix(20.5728,-0.931826,0.0466973,1.03098,-101615,4556.27)">
                            <ellipse cx="4973.27" cy="151.915" rx="1.212" ry="28.799" style="fill:rgb(10,152,133);"/>
                        </g>
                        <g transform="matrix(12.245,-0.554626,0.0301027,0.61354,-60241.6,2746.39)">
                            <ellipse cx="4973.27" cy="151.915" rx="1.212" ry="28.799" style="fill:rgb(10,152,133);"/>
                        </g>
                        <g transform="matrix(9.40121,-0.425818,0.050417,0.4785,-46130.6,2138.28)">
                            <ellipse cx="4973.27" cy="151.915" rx="1.212" ry="28.799" style="fill:rgb(10,152,133);"/>
                        </g>
                        <g transform="matrix(8.76722,-0.397103,0.0399178,0.378853,-42999.3,2026.72)">
                            <ellipse cx="4973.27" cy="151.915" rx="1.212" ry="28.799" style="fill:rgb(10,152,133);"/>
                        </g>
                        <g transform="matrix(6.64852,-0.301138,0.0201992,0.280516,-32473.2,1582.61)">
                            <ellipse cx="4973.27" cy="151.915" rx="1.212" ry="28.799" style="fill:rgb(10,152,133);"/>
                        </g>
                    </g>
                    <g transform="matrix(-0.370988,0,0,0.370988,450.782,174.105)">
                        <g transform="matrix(1,0,0,1,-4267.39,-74.171)">
                            <path d="M5000.04,237.649C5000.62,223.406 4997.57,212.355 4991.99,204.701C4975.3,181.798 4935.78,184.156 4931.57,184.192C4884.34,184.597 4861.06,225.363 4860.75,255.464C4860.57,272.353 4868.35,302.518 4875.93,329.814C4883.12,355.733 4890.02,379.051 4893.59,386.511C4901.14,402.267 4921.53,416.795 4941.29,416.322C4959.74,415.88 4989.82,406.156 4990.22,371.883C4990.56,343.842 4968.57,336.2 4967.68,319.101C4966.35,293.612 4998.32,280.231 5000.04,237.649Z" style="fill:rgb(10,152,133);"/>
                        </g>
                        <g transform="matrix(20.5728,-0.931826,0.0466973,1.03098,-101615,4556.27)">
                            <ellipse cx="4973.27" cy="151.915" rx="1.212" ry="28.799" style="fill:rgb(10,152,133);"/>
                        </g>
                        <g transform="matrix(12.245,-0.554626,0.0301027,0.61354,-60241.6,2746.39)">
                            <ellipse cx="4973.27" cy="151.915" rx="1.212" ry="28.799" style="fill:rgb(10,152,133);"/>
                        </g>
                        <g transform="matrix(9.40121,-0.425818,0.050417,0.4785,-46130.6,2138.28)">
                            <ellipse cx="4973.27" cy="151.915" rx="1.212" ry="28.799" style="fill:rgb(10,152,133);"/>
                        </g>
                        <g transform="matrix(8.76722,-0.397103,0.0399178,0.378853,-42999.3,2026.72)">
                            <ellipse cx="4973.27" cy="151.915" rx="1.212" ry="28.799" style="fill:rgb(10,152,133);"/>
                        </g>
                        <g transform="matrix(6.64852,-0.301138,0.0201992,0.280516,-32473.2,1582.61)">
                            <ellipse cx="4973.27" cy="151.915" rx="1.212" ry="28.799" style="fill:rgb(10,152,133);"/>
                        </g>
                    </g>
                </g>
                <g transform="matrix(1,0,0,1,-4385.84,-119.502)">
                    <path d="M4801.48,494.608C4785.54,506.796 4765.61,514.042 4743.99,514.042C4691.83,514.042 4649.48,471.848 4649.48,419.878C4649.48,367.907 4691.83,325.713 4743.99,325.713C4796.16,325.713 4838.51,367.907 4838.51,419.878C4838.51,442.329 4830.6,462.955 4817.42,479.141C4821.09,482.785 4827.86,489.521 4835.4,497.045L4840.1,492.37C4840.1,492.37 4911.52,563.225 4927.68,580.469C4931.79,584.853 4937.11,589.255 4937.11,595.837C4937.11,605.589 4928.77,613.506 4918.5,613.506C4914.56,613.506 4910.66,612.824 4907.65,610.19C4889.9,594.706 4814.9,517.417 4814.9,517.417L4819.41,512.939C4811.76,505.157 4805.02,498.246 4801.48,494.608ZM4743.99,339.377C4788.59,339.377 4824.79,375.448 4824.79,419.878C4824.79,464.307 4788.59,500.379 4743.99,500.379C4699.4,500.379 4663.19,464.307 4663.19,419.878C4663.19,375.448 4699.4,339.377 4743.99,339.377Z" style="fill:none;stroke:black;stroke-width:3.5px;"/>
                </g>
                <g transform="matrix(1,0,0,1,-4392.72,-119.502)">
                    <path d="M4801.48,494.608C4785.54,506.796 4765.61,514.042 4743.99,514.042C4691.83,514.042 4649.48,471.848 4649.48,419.878C4649.48,367.907 4691.83,325.713 4743.99,325.713C4796.16,325.713 4838.51,367.907 4838.51,419.878C4838.51,442.329 4830.6,462.955 4817.42,479.141C4821.09,482.785 4827.86,489.521 4835.4,497.045L4840.1,492.37C4840.1,492.37 4911.52,563.225 4927.68,580.469C4931.79,584.853 4937.11,589.255 4937.11,595.837C4937.11,605.589 4928.77,613.506 4918.5,613.506C4914.56,613.506 4910.66,612.824 4907.65,610.19C4889.9,594.706 4814.9,517.417 4814.9,517.417L4819.41,512.939C4811.76,505.157 4805.02,498.246 4801.48,494.608ZM4743.99,339.377C4788.59,339.377 4824.79,375.448 4824.79,419.878C4824.79,464.307 4788.59,500.379 4743.99,500.379C4699.4,500.379 4663.19,464.307 4663.19,419.878C4663.19,375.448 4699.4,339.377 4743.99,339.377Z" style="fill:rgb(10,152,133);"/>
                </g>
            </g>
        </g>
    </g>
</svg>
