<?xml version="1.0" encoding="UTF-8" standalone="no"?>
<!DOCTYPE svg PUBLIC "-//W3C//DTD SVG 1.1//EN" "http://www.w3.org/Graphics/SVG/1.1/DTD/svg11.dtd">
<svg width="100%" height="100%" viewBox="0 0 162 491" version="1.1" xmlns="http://www.w3.org/2000/svg" xmlns:xlink="http://www.w3.org/1999/xlink" xml:space="preserve" xmlns:serif="http://www.serif.com/" style="fill-rule:evenodd;clip-rule:evenodd;stroke-linecap:round;stroke-linejoin:round;stroke-miterlimit:1.5;">
    <g transform="matrix(1,0,0,1,-1891.53,-943.231)">
        <g transform="matrix(1,0,0,1,1353.52,813.357)">
            <g transform="matrix(0.79414,0,0,0.79414,-141.94,-70.9918)">
                <g>
                    <path d="M941.891,362.679L943.831,386.284C936.97,383.632 937.232,378.154 937.076,372.228C936.865,364.265 937.365,364.313 941.891,362.679Z" style="fill:rgb(47,18,5);stroke:rgb(47,18,5);stroke-width:1px;"/>
                    <g transform="matrix(-0.715552,0,0,0.844114,1648.87,52.4565)">
                        <path d="M946.199,359.55L956.96,380.489C948.993,425.726 944.225,394.455 946.199,359.55Z" style="fill:rgb(47,18,5);stroke:rgb(47,18,5);stroke-width:1.28px;"/>
                    </g>
                </g>
                <g>
                    <path d="M914.445,322.576C914.445,322.576 908.236,320.325 908.702,329.018C909.168,337.71 919.568,344.851 919.568,344.851L914.445,322.576Z" style="fill:rgb(255,178,141);stroke:black;stroke-width:1px;"/>
                    <g transform="matrix(-1,0,0,1,1908.39,0)">
                        <path d="M914.445,322.576C914.445,322.576 908.236,320.325 908.702,329.018C909.168,337.71 919.568,344.851 919.568,344.851L914.445,322.576Z" style="fill:rgb(255,178,141);stroke:black;stroke-width:1px;"/>
                    </g>
                    <path d="M925.183,414.681C925.183,414.681 931.348,386.028 926.567,386.084C922.717,386.13 922.748,384.966 917.841,384.497C903.281,383.105 894.133,398.994 894.646,416.99C895.359,442.01 891.829,467.158 891.692,482.649C891.595,493.665 888.509,536.864 888.257,543.327C887.893,552.665 879.967,583.511 880.331,586.907C880.695,590.302 885.909,602.429 887.486,603.399C889.062,604.37 892.813,603.801 892.813,603.801L912.605,510.705C912.605,510.705 913.88,503.875 914.019,492.777C914.157,481.678 916.175,473.994 916.175,473.994L925.183,414.681Z" style="fill:rgb(255,178,141);stroke:black;stroke-width:1px;"/>
                    <g transform="matrix(-1,0,0,1,1909,5.68434e-14)">
                        <path d="M925.183,414.681C925.183,414.681 931.348,386.028 926.567,386.084C922.717,386.13 922.748,384.966 917.841,384.497C903.281,383.105 894.133,398.994 894.646,416.99C895.359,442.01 891.829,467.158 891.692,482.649C891.595,493.665 888.509,536.864 888.257,543.327C887.893,552.665 879.967,583.511 880.331,586.907C880.695,590.302 885.909,602.429 887.486,603.399C889.062,604.37 892.813,603.801 892.813,603.801L912.605,510.705C912.605,510.705 913.88,503.875 914.019,492.777C914.157,481.678 916.175,473.994 916.175,473.994L925.183,414.681Z" style="fill:rgb(255,178,141);stroke:black;stroke-width:1px;"/>
                    </g>
                    <path d="M954.846,602.122C954.295,602.126 952.025,602.1 951.012,601.407C951.012,601.407 950.41,600.789 950.77,612.064C951.303,628.775 938.182,665.597 936.242,674.814C934.301,684.03 933.599,696.423 932.41,710.305C931.613,719.597 936.433,728.74 936.411,742.227C936.386,758.248 931.762,769.02 927.453,786.068C923.523,801.613 920.625,817.078 920.889,826.085C921.049,831.546 921.479,845.032 921.354,850.496C921.23,855.96 888.084,868.026 886.246,868.026C882.729,868.026 884.063,866.207 883.336,866.571C882.608,866.934 878.026,866.235 877.695,863.009C877.198,858.166 882.476,858.538 883.345,857.545C884.214,856.551 888.747,850.498 891.044,848.262C893.342,846.027 900.544,836.155 900.544,835.037C900.544,833.92 901.115,809.451 900.561,796.115C900,782.628 904.276,769.056 904.351,760.113C904.437,750.06 901.518,735.822 900.247,726.457C899.319,719.628 895.917,724.108 897.285,713.457C898.313,705.455 900.173,702.558 900.173,691.6C900.173,686.218 894.697,651.614 891.962,622.096C891.217,614.055 891.592,583.583 891.834,579.268C892.137,573.866 902.42,536.214 904.351,529.927C906.283,523.64 912.743,512.231 914.994,506.333C917.244,500.434 917.499,498.162 917.596,497.095C917.693,496.027 917.861,487.743 917.802,484.402C917.659,476.296 910.491,450.672 910.413,446.558C910.336,442.445 910.03,428.538 911.314,422.708C913.507,412.743 920.13,385.873 926.339,385.951C932.548,386.028 939.572,382.05 939.572,382.05L939.689,370.972L954.662,370.433L969.017,370.439L969.134,381.016C969.134,381.016 977.389,386.028 983.598,385.951C989.807,385.873 995.313,413.054 997.506,423.019C998.789,428.849 998.484,442.755 998.406,446.869C998.329,450.982 991.161,476.607 991.018,484.713C990.959,488.053 991.127,496.338 991.224,497.405C991.321,498.472 991.575,500.745 993.826,506.643C996.077,512.542 1002.54,523.951 1004.47,530.238C1006.4,536.524 1016.68,574.176 1016.99,579.578C1017.23,583.894 1017.05,614.246 1016.3,622.287C1013.57,651.806 1008.65,686.528 1008.65,691.91C1008.65,702.868 1010.49,705.768 1011.53,713.768C1012.84,723.736 1009.13,721.242 1008.57,726.767C1007.63,736.171 1004.38,750.37 1004.47,760.424C1004.54,769.366 1008.82,782.938 1008.26,796.426C1007.71,809.762 1008.28,834.23 1008.28,835.348C1008.28,836.465 1015.54,846.648 1017.84,848.883C1020.13,851.118 1024.79,857.296 1025.66,858.29C1026.53,859.283 987.366,855.761 987.242,850.297C987.118,844.833 987.771,831.856 987.931,826.396C988.195,817.389 986.414,801.613 982.485,786.068C978.175,769.02 973.552,758.248 973.526,742.227C973.504,728.74 978.324,719.597 977.528,710.305C976.338,696.423 974.666,684.224 972.726,675.008C970.785,665.791 958.03,628.838 958.564,612.128C958.924,600.853 958.149,601.31 958.149,601.31C956.991,602.102 954.969,602.12 954.969,602.12L954.846,602.122Z" style="fill:rgb(255,178,141);stroke:black;stroke-width:1px;"/>
                    <path d="M954.411,378.149C960.578,378.201 984.061,361.287 987.457,348.635C991.649,333.023 996.089,318.437 995.878,308.002C995.431,285.939 980.341,259.475 954.457,260.192C928.688,260.905 913.075,282.745 913.445,310.503C913.637,324.945 917.969,339.178 920.942,347.906C927.115,366.024 949.476,378.107 954.411,378.149Z" style="fill:rgb(255,178,141);stroke:black;stroke-width:1px;"/>
                </g>
                <g>
                    <path d="M889.875,849.398C894.24,845.148 900.377,836.046 900.388,834.854C900.389,834.78 900.524,830.374 900.68,824.42L920.765,825.008L921.028,837.473L915.52,854.041C901.991,856.392 892.346,855.717 889.875,849.398Z" style="fill:white;stroke:black;stroke-width:1px;"/>
                    <g transform="matrix(-1,0,0,1,1908.72,1.13687e-13)">
                        <path d="M889.875,849.398C894.24,845.148 900.377,836.046 900.388,834.854C900.389,834.78 900.524,830.374 900.68,824.42L920.765,825.008L921.101,837.692L915.52,854.041C901.991,856.392 892.346,855.717 889.875,849.398Z" style="fill:white;stroke:black;stroke-width:1px;"/>
                    </g>
                    <g transform="matrix(1.11572,0,0,1.11572,-269.061,-67.4658)">
                        <path d="M1126.83,826.108L1126.76,828.991C1126.76,828.991 1134.78,833.092 1136.09,832.951C1137.4,832.81 1138.6,832.389 1138.6,832.389L1126.83,826.108Z" style="stroke:black;stroke-width:0.47px;"/>
                        <path d="M1126.43,811.44C1126.43,811.44 1125.59,814.048 1125.61,816.566C1125.62,821.094 1125.45,825.367 1126.84,826.205C1133.06,829.932 1140.61,832.56 1143.82,836.931C1146.05,839.962 1150.07,840.472 1153.88,840.416C1156.84,840.372 1159.66,840.109 1161.42,839.645C1165.45,838.583 1166.56,837.224 1166.66,836.234C1166.73,835.499 1166.85,834.496 1166.86,833.314C1166.87,832.305 1166.92,830.927 1166.13,829.662C1164.41,826.916 1161.97,826.025 1161.97,826.025L1156.88,821.814C1156.88,821.814 1144.05,826.251 1137.18,823.022C1130.22,819.746 1127.85,815.677 1126.43,811.44Z" style="stroke:black;stroke-width:0.47px;"/>
                        <path d="M1145.62,822.936C1145.36,823.263 1147.05,825.113 1148.5,826.92C1149.37,828.002 1150.19,829.398 1150.58,829.531C1150.84,829.622 1152.92,826.867 1155.97,825.773C1158.9,824.722 1162.65,825.214 1162.55,825.133C1162.33,824.969 1157.95,819.744 1157.7,819.849C1157.4,819.969 1155.01,821.624 1152.67,822.276C1148.95,823.312 1145.76,822.753 1145.62,822.936Z" style="stroke:black;stroke-width:0.47px;"/>
                        <path d="M1151.27,822.601C1151.66,823.194 1153.55,825.9 1154.26,826.597C1155.14,827.469 1158.2,825.629 1158.01,824.723C1157.85,823.925 1155.52,821.866 1154.99,821.217C1154.58,820.703 1150.88,822.011 1151.27,822.601Z" style="stroke:black;stroke-width:0.47px;"/>
                    </g>
                    <g transform="matrix(-1.11572,0,0,1.11572,2177.42,-67.4658)">
                        <path d="M1126.83,826.108L1126.76,828.991C1126.76,828.991 1134.78,833.092 1136.09,832.951C1137.4,832.81 1138.6,832.389 1138.6,832.389L1126.83,826.108Z" style="stroke:black;stroke-width:0.47px;"/>
                        <path d="M1126.43,811.44C1126.43,811.44 1125.59,814.048 1125.61,816.566C1125.62,821.094 1125.45,825.367 1126.84,826.205C1133.06,829.932 1140.61,832.56 1143.82,836.931C1146.05,839.962 1150.07,840.472 1153.88,840.416C1156.84,840.372 1159.66,840.109 1161.42,839.645C1165.45,838.583 1166.56,837.224 1166.66,836.234C1166.73,835.499 1166.85,834.496 1166.86,833.314C1166.87,832.305 1166.92,830.927 1166.13,829.662C1164.41,826.916 1161.97,826.025 1161.97,826.025L1156.88,821.814C1156.88,821.814 1144.05,826.251 1137.18,823.022C1130.22,819.746 1127.85,815.677 1126.43,811.44Z" style="stroke:black;stroke-width:0.47px;"/>
                        <path d="M1145.62,822.936C1145.36,823.263 1147.05,825.113 1148.5,826.92C1149.37,828.002 1150.19,829.398 1150.58,829.531C1150.84,829.622 1152.92,826.867 1155.97,825.773C1158.9,824.722 1162.65,825.214 1162.55,825.133C1162.33,824.969 1157.95,819.744 1157.7,819.849C1157.4,819.969 1155.01,821.624 1152.67,822.276C1148.95,823.312 1145.76,822.753 1145.62,822.936Z" style="stroke:black;stroke-width:0.47px;"/>
                        <path d="M1151.27,822.601C1151.66,823.194 1153.55,825.9 1154.26,826.597C1155.14,827.469 1158.2,825.629 1158.01,824.723C1157.85,823.925 1155.52,821.866 1154.99,821.217C1154.58,820.703 1150.88,822.011 1151.27,822.601Z" style="stroke:black;stroke-width:0.47px;"/>
                    </g>
                </g>
                <g>
                    <path d="M1016.96,572.545C1017.61,574.262 1027.71,590.935 1028.68,603.967C1030.32,626.068 1046.6,645.904 1050.22,666.358C1055.35,695.371 1058.97,718.598 1059.13,720.69C1059.6,726.975 1037.99,731.528 1034.22,731.287C1030.45,731.045 1026.43,729.466 1026.43,729.466C1026.43,729.466 1027.97,747.218 1027.63,749.538C1027.17,752.708 1010.23,754.686 1003.33,755.776C996.376,756.873 998.098,749.155 997.684,743.355L995.119,743.355C995.119,743.355 994.798,744.191 995.055,747.088C995.311,749.984 992.361,751.786 988.77,752.365C986.003,752.811 985.559,752.57 985.501,752.435C985.508,753.028 985.549,757.209 985.4,759.224C985.24,761.397 985.53,763.222 981.954,763.247C975.942,763.288 975.57,756.988 962.399,758.209C958.884,758.535 951.942,757.645 951.979,761.266C951.998,763.124 939.302,764.595 941.724,760.54C942.893,758.582 938.193,757.974 932.322,757.911C925.149,757.834 922.405,758.333 920.937,759.664C919.183,761.255 918.728,763.73 914.691,763.934C912.604,764.039 908.432,763.122 908.054,759.911C907.775,757.551 909.033,750.85 909.033,750.85C909.033,750.85 903.558,750.809 897.906,750.851C891.191,750.902 883.952,750.9 881.502,748.85C880.232,747.786 880.626,743.947 880.626,743.947C868.268,741.077 857.325,738.207 856.705,735.337L860.587,712.333C860.587,712.333 858.629,710.034 858.472,708.373C858.346,707.053 859.775,700.42 861.266,690.423C862.841,679.863 864.53,665.535 866.214,649.184C868.46,627.364 874.988,618.161 880.758,599.73C885.692,583.97 893.911,564.283 893.911,564.283L894.663,562.065C898.021,552.179 911.508,512.557 912.432,511.35C914.228,509.002 914.353,505.877 915.387,503.221C916.484,500.401 918.358,495.15 918.327,489.287C918.303,484.886 912.884,458.797 911.858,453.633C911.099,449.817 909.754,443.813 910.094,436.73C910.187,434.782 911.007,431.8 911.279,428.863L911.68,425.137L911.833,423.953L911.963,423.086L913.438,414.313C913.188,415.636 912.937,416.96 912.687,418.284L911.963,423.086L911.883,423.564L911.833,423.953L911.743,424.552L911.68,425.137L911.425,427.107L911.279,428.863C910.255,431.253 909.789,444.458 910.303,444.19C910.486,444.096 907.547,444.664 904.351,444.19C902.112,443.859 899.976,444.359 897.691,444.19C895.03,443.994 892.878,443.071 891.38,442.883C890.567,442.781 890.039,442.686 889.915,442.602C889.703,442.459 894.75,410.597 894.75,410.597C892.329,406.202 892.693,401.514 893.753,397.182C895.183,391.339 897.418,386.74 903.536,383.185C906.66,381.37 910.64,381.379 914.023,381.356C918.518,381.326 922.255,381.888 924.446,384.412L926.877,385.914C932.276,384.976 931.334,385.915 934.84,383.912C934.84,383.912 947.968,402.243 957.632,401.775C964.825,401.427 970.286,387.341 974.725,383.68C981.13,387.485 991.47,384.379 994.558,384.349C1000.33,384.294 1007.65,384.848 1010.83,387.737C1013.28,389.969 1015.73,391.882 1016.95,394.825C1019.87,401.839 1018.44,410.33 1014.48,416.732L1017.07,441.653C1016.91,441.545 1014.8,441.344 1012.48,441.557C1010.02,441.782 1007.39,443.022 1004.77,443.299C1002.33,443.556 1000.19,443.177 999.527,443.217C998.122,443.302 999.124,434.134 998.757,433.18C998.444,432.367 997.339,420.709 997.057,420.064C996.447,418.665 997.97,426.446 998.757,433.18C998.978,435.076 998.678,441.19 998.91,442.118C999.376,443.988 996.681,458.353 993.463,470.145C991.195,478.459 990.932,489.887 991.032,494.189C991.062,495.433 993.243,505.092 993.243,505.092C996.748,508.564 1016.9,572.372 1016.9,572.372L1016.96,572.545Z" style="fill:rgb(10,152,133);stroke:black;stroke-width:1px;"/>
                    <g>
                        <g transform="matrix(1,0,0,1.29769,0,-225.951)">
                            <path d="M997.847,747.345C999.092,689.817 994.813,639.593 976.965,580.947C975.743,576.93 974.486,566.958 973.536,562.893" style="fill:none;stroke:black;stroke-width:0.46px;"/>
                        </g>
                        <g transform="matrix(1,0,0,1.29769,0,-225.951)">
                            <path d="M986.094,753.059C980.059,688.482 976.431,624.981 962.253,563.337" style="fill:none;stroke:black;stroke-width:0.46px;"/>
                        </g>
                        <g transform="matrix(1,0,0,1.29769,0,-225.951)">
                            <path d="M880.649,747.345C880.649,747.345 885.968,697.236 891.785,674.332C895.581,659.384 901.13,635.085 909.86,610.99C919.04,585.648 927.382,563.337 927.382,563.337" style="fill:none;stroke:black;stroke-width:0.46px;"/>
                        </g>
                        <g transform="matrix(1,0,0,1.29769,0,-225.951)">
                            <path d="M909.863,753.059C909.593,693.466 926.548,626.825 945.048,562.893" style="fill:none;stroke:black;stroke-width:0.46px;"/>
                        </g>
                        <g transform="matrix(1,0,0,1.29769,0,-225.951)">
                            <path d="M954.541,759.005C957.358,717.471 955.156,678.503 954.541,637.63C954.175,613.359 956.238,587.021 955.131,562.893" style="fill:none;stroke:black;stroke-width:0.46px;"/>
                        </g>
                        <g transform="matrix(1,0,0,1.29769,0,-225.951)">
                            <path d="M1026.54,736.542C1026.54,736.542 1024.9,705.619 1021.36,690.631C1014.56,661.9 985.792,564.156 985.792,564.156" style="fill:none;stroke:black;stroke-width:0.46px;"/>
                        </g>
                        <path d="M924.656,757.973L948.633,504.511" style="fill:none;stroke:black;stroke-width:0.53px;"/>
                    </g>
                    <g transform="matrix(0.861657,0,0,0.861657,360.466,112.712)">
                        <path d="M646.231,439.103C646.231,439.103 645.99,441.152 649.2,441.085C655.957,440.944 680.062,439.17 687.834,439.959C695.606,440.747 709.347,440.184 718.808,440.86C728.269,441.536 732.418,441.168 732.418,441.168C732.418,441.168 731.942,447.265 733.406,450.419C734.871,453.573 736.301,457.444 731.281,456.448C726.262,455.451 698.415,455.075 692.216,455.002C686.016,454.93 676.141,453.705 669.148,454.426C662.156,455.147 654.659,455.579 652.208,455.291C649.757,455.002 643.028,453.4 644.284,452.366C645.845,451.081 646.701,443.151 646.231,439.103Z" style="fill:white;stroke:black;stroke-width:1.16px;"/>
                    </g>
                    <g transform="matrix(0.446443,0,0,0.446443,646.076,297.78)">
                        <g transform="matrix(1.68922,0,0,1,-470.85,0.296453)">
                            <path d="M687.925,439.729C689.945,439.729 691.927,442.602 691.927,446.425C691.927,450.248 689.843,453.352 687.822,453.352C686.638,453.352 684.716,452.346 683.92,450.744C683.358,449.611 683.718,448.181 683.718,446.598C683.718,442.775 685.904,439.729 687.925,439.729Z" style="fill:rgb(10,152,133);fill-opacity:0.64;stroke:black;stroke-width:0.85px;"/>
                        </g>
                        <g transform="matrix(1,0,0,1,0.340119,-0.416392)">
                            <path d="M690.99,442.773C692.419,442.773 694.344,445.448 694.344,447.075C694.344,448.702 692.36,451.415 690.931,451.415C689.501,451.415 685.83,448.824 685.83,447.197C685.83,445.57 689.56,442.773 690.99,442.773Z" style="fill:rgb(10,152,133);stroke:black;stroke-width:1.18px;"/>
                        </g>
                    </g>
                </g>
                <g>
                    <g>
                        <g transform="matrix(0.632886,0,0,0.632886,754.658,61.4186)">
                            <g transform="matrix(1,0,0,1,-0.616704,-3.70893)">
                                <g transform="matrix(-1,0,0,1,649.011,-7.10543e-15)">
                                    <path d="M313.373,426.021C312.905,420.662 313.956,411.5 295.788,412.269C283.213,412.802 284.278,412.051 284.346,416.846C284.451,424.201 289.56,427.603 302.168,427.169C312.319,426.819 313.373,426.021 313.373,426.021Z" style="fill:white;stroke:black;stroke-width:1.58px;"/>
                                </g>
                                <g transform="matrix(-1.97633,0,0,0.904785,933.719,40.3297)">
                                    <path d="M291.61,414.273C291.61,413.167 291.454,411.293 291.933,411.305C293.861,411.354 297.641,410.831 299.256,412.527C299.435,412.715 299.345,413.805 299.345,414.273C299.345,419.401 297.612,423.564 295.478,423.564C293.343,423.564 291.61,419.401 291.61,414.273Z" style="fill:rgb(53,17,0);stroke:black;stroke-width:1.09px;"/>
                                </g>
                            </g>
                            <g transform="matrix(-1,0,0,1,649.011,-3.92162)">
                                <path d="M280.967,405.328L281.021,403.202C281.105,402.322 301.875,395.557 312.219,395.169C316.135,395.022 318.557,395.483 317.797,397.97C315.605,405.144 314.21,401.368 295.687,402.329C282.261,403.026 280.967,405.328 280.967,405.328Z" style="fill:rgb(47,18,5);stroke:black;stroke-width:0.84px;"/>
                            </g>
                        </g>
                        <g transform="matrix(0.632886,0,0,0.632886,745.904,58.9367)">
                            <g>
                                <path d="M313.373,426.021C312.905,420.662 313.956,411.5 295.788,412.269C283.213,412.802 284.278,412.051 284.346,416.846C284.451,424.201 289.56,427.603 302.168,427.169C312.319,426.819 313.373,426.021 313.373,426.021Z" style="fill:white;stroke:black;stroke-width:1.58px;"/>
                                <g transform="matrix(1.97633,0,0,0.904785,-284.708,40.3297)">
                                    <path d="M291.61,414.273C291.61,413.167 291.454,411.293 291.933,411.305C293.861,411.354 297.641,410.831 299.256,412.527C299.435,412.715 299.345,413.805 299.345,414.273C299.345,419.401 297.612,423.564 295.478,423.564C293.343,423.564 291.61,419.401 291.61,414.273Z" style="fill:rgb(53,17,0);stroke:black;stroke-width:1.09px;"/>
                                </g>
                            </g>
                            <path d="M280.967,405.328L281.021,403.202C281.105,402.322 301.875,395.557 312.219,395.169C316.135,395.022 318.557,395.483 317.797,397.97C315.605,405.144 314.21,401.368 295.687,402.329C282.261,403.026 280.967,405.328 280.967,405.328Z" style="fill:rgb(47,18,5);stroke:black;stroke-width:0.84px;"/>
                        </g>
                        <g transform="matrix(0.651366,0,0,0.651366,742.275,62.0032)">
                            <path d="M311.528,453.686C320.525,458.94 330.205,459.271 340.692,453.798" style="fill:none;stroke:black;stroke-width:1.54px;"/>
                        </g>
                        <g>
                            <g transform="matrix(1,0,0,1,365.134,2.02127)">
                                <path d="M593.004,340.915C594.559,341.994 593.797,342.963 592.146,343.89" style="fill:none;stroke:black;stroke-width:1px;"/>
                            </g>
                            <g transform="matrix(0.651366,0,0,0.651366,741.586,56.0173)">
                                <path d="M320.528,431.695L320.299,436.215C320.299,436.215 315.445,439.002 316.523,441.592C317.971,445.069 323.474,445.539 323.617,444.968" style="fill:none;stroke:black;stroke-width:1.54px;"/>
                            </g>
                        </g>
                    </g>
                    <g transform="matrix(0.838735,0,0,0.969518,71.2881,-352.334)">
                        <path d="M1005.67,695.23C1001.84,697.958 1003.16,661.633 1004.07,657.632C1004.98,653.631 1015.63,625.408 1053.22,624.585C1074.79,624.112 1096.61,635.586 1102.37,652.894C1107.12,667.152 1100.39,699.038 1100.45,694.207C1100.53,686.765 1100.3,681.73 1090.13,670.365C1080.58,659.693 1078.42,662.392 1053.22,662.53C1034.64,662.632 1029.14,659.146 1018.72,670.034C1005.42,683.938 1009.51,692.502 1005.67,695.23Z" style="fill:rgb(47,18,5);stroke:rgb(47,18,5);stroke-width:0.58px;"/>
                    </g>
                </g>
            </g>
        </g>
    </g>
</svg>
