<?xml version="1.0" encoding="UTF-8" standalone="no"?>
<!DOCTYPE svg PUBLIC "-//W3C//DTD SVG 1.1//EN" "http://www.w3.org/Graphics/SVG/1.1/DTD/svg11.dtd">
<svg width="100%" height="100%" viewBox="0 0 139 495" version="1.1" xmlns="http://www.w3.org/2000/svg" xmlns:xlink="http://www.w3.org/1999/xlink" xml:space="preserve" xmlns:serif="http://www.serif.com/" style="fill-rule:evenodd;clip-rule:evenodd;stroke-linecap:round;stroke-linejoin:round;stroke-miterlimit:1.5;">
    <g transform="matrix(1,0,0,1,-4892.28,-178.697)">
        <g id="Plan-de-travail1" serif:id="Plan de travail1" transform="matrix(1,0,0,1,4267.39,74.171)">
            <rect x="0" y="0" width="1280" height="720" style="fill:none;"/>
            <g transform="matrix(0.877498,0,0,0.90795,83.9651,69.5479)">
                <g transform="matrix(0.905004,0,0,0.874651,-166.77,-182.706)">
                    <g>
                        <path d="M941.891,362.679L943.831,386.284C936.97,383.632 937.232,378.154 937.076,372.228C936.865,364.265 937.365,364.313 941.891,362.679Z" style="fill:rgb(47,18,5);stroke:rgb(47,18,5);stroke-width:1px;"/>
                        <g transform="matrix(-0.715552,0,0,0.844114,1648.87,52.4565)">
                            <path d="M946.199,359.55L956.96,380.489C948.993,425.726 944.225,394.455 946.199,359.55Z" style="fill:rgb(47,18,5);stroke:rgb(47,18,5);stroke-width:1.28px;"/>
                        </g>
                    </g>
                    <g>
                        <path d="M914.445,322.576C914.445,322.576 908.236,320.325 908.702,329.018C909.168,337.71 919.568,344.851 919.568,344.851L914.445,322.576Z" style="fill:rgb(255,178,141);stroke:black;stroke-width:1px;"/>
                        <g transform="matrix(-1,0,0,1,1908.39,0)">
                            <path d="M914.445,322.576C914.445,322.576 908.236,320.325 908.702,329.018C909.168,337.71 919.568,344.851 919.568,344.851L914.445,322.576Z" style="fill:rgb(255,178,141);stroke:black;stroke-width:1px;"/>
                        </g>
                        <path d="M925.183,414.681C925.183,414.681 899.323,401.218 895.758,417.917C890.533,442.395 891.829,467.158 891.692,482.649C891.595,493.665 888.509,536.864 888.257,543.327C887.893,552.665 879.967,583.511 880.331,586.907C880.695,590.302 885.909,602.429 887.486,603.399C889.062,604.37 892.813,603.801 892.813,603.801L912.605,510.705C912.605,510.705 913.88,503.875 914.019,492.777C914.157,481.678 916.175,473.994 916.175,473.994L925.183,414.681Z" style="fill:rgb(255,178,141);stroke:black;stroke-width:1px;"/>
                        <g transform="matrix(-1,0,0,1,1909,5.68434e-14)">
                            <path d="M925.183,414.681C925.183,414.681 898.498,404.119 896.164,417.085C891.73,441.719 891.829,467.158 891.692,482.649C891.595,493.665 888.509,536.864 888.257,543.327C887.893,552.665 879.967,583.511 880.331,586.907C880.695,590.302 885.909,602.429 887.486,603.399C889.062,604.37 892.813,603.801 892.813,603.801L912.605,510.705C912.605,510.705 913.88,503.875 914.019,492.777C914.157,481.678 916.175,473.994 916.175,473.994L925.183,414.681Z" style="fill:rgb(255,178,141);stroke:black;stroke-width:1px;"/>
                        </g>
                        <path d="M1004.47,530.238C1006.4,536.524 902.42,536.214 904.351,529.927C906.283,523.64 912.743,512.231 914.994,506.333C917.244,500.434 917.499,498.162 917.596,497.095C917.693,496.027 917.861,487.743 917.802,484.402C917.659,476.296 910.491,450.672 910.413,446.558C910.336,442.445 910.03,428.538 911.314,422.708C913.507,412.743 918.974,391.202 925.183,391.28C931.392,391.357 939.572,382.05 939.572,382.05L939.689,370.972L954.662,370.433L969.017,370.439L969.134,381.016C969.134,381.016 977.608,391.588 983.817,391.511C990.026,391.433 995.313,413.054 997.506,423.019C998.789,428.849 998.484,442.755 998.406,446.869C998.329,450.982 991.161,476.607 991.018,484.713C990.959,488.053 991.127,496.338 991.224,497.405C991.321,498.472 991.575,500.745 993.826,506.643C996.077,512.542 1002.54,523.951 1004.47,530.238Z" style="fill:rgb(255,178,141);stroke:black;stroke-width:1px;"/>
                        <path d="M954.411,378.149C960.578,378.201 984.061,361.287 987.457,348.635C991.649,333.023 996.089,318.437 995.878,308.002C995.431,285.939 980.341,259.475 954.457,260.192C928.688,260.905 913.075,282.745 913.445,310.503C913.637,324.945 917.969,339.178 920.942,347.906C927.115,366.024 949.476,378.107 954.411,378.149Z" style="fill:rgb(255,178,141);stroke:black;stroke-width:1px;"/>
                    </g>
                    <g>
                        <g>
                            <g transform="matrix(0.632886,0,0,0.632886,754.658,61.4186)">
                                <g transform="matrix(1,0,0,1,-0.616704,-3.70893)">
                                    <g transform="matrix(-1,0,0,1,649.011,-7.10543e-15)">
                                        <path d="M313.373,426.021C312.905,420.662 313.956,411.5 295.788,412.269C283.213,412.802 284.278,412.051 284.346,416.846C284.451,424.201 289.56,427.603 302.168,427.169C312.319,426.819 313.373,426.021 313.373,426.021Z" style="fill:white;stroke:black;stroke-width:1.58px;"/>
                                    </g>
                                    <g transform="matrix(-1.97633,0,0,0.904785,933.719,40.3297)">
                                        <path d="M291.61,414.273C291.61,413.167 291.454,411.293 291.933,411.305C293.861,411.354 297.641,410.831 299.256,412.527C299.435,412.715 299.345,413.805 299.345,414.273C299.345,419.401 297.612,423.564 295.478,423.564C293.343,423.564 291.61,419.401 291.61,414.273Z" style="fill:rgb(53,17,0);stroke:black;stroke-width:1.09px;"/>
                                    </g>
                                </g>
                                <g transform="matrix(-1,0,0,1,649.011,-3.92162)">
                                    <path d="M280.967,405.328L281.021,403.202C281.105,402.322 301.875,395.557 312.219,395.169C316.135,395.022 318.557,395.483 317.797,397.97C315.605,405.144 314.21,401.368 295.687,402.329C282.261,403.026 280.967,405.328 280.967,405.328Z" style="fill:rgb(47,18,5);stroke:black;stroke-width:0.84px;"/>
                                </g>
                            </g>
                            <g transform="matrix(0.632886,0,0,0.632886,745.904,58.9367)">
                                <g>
                                    <path d="M313.373,426.021C312.905,420.662 313.956,411.5 295.788,412.269C283.213,412.802 284.278,412.051 284.346,416.846C284.451,424.201 289.56,427.603 302.168,427.169C312.319,426.819 313.373,426.021 313.373,426.021Z" style="fill:white;stroke:black;stroke-width:1.58px;"/>
                                    <g transform="matrix(1.97633,0,0,0.904785,-284.708,40.3297)">
                                        <path d="M291.61,414.273C291.61,413.167 291.454,411.293 291.933,411.305C293.861,411.354 297.641,410.831 299.256,412.527C299.435,412.715 299.345,413.805 299.345,414.273C299.345,419.401 297.612,423.564 295.478,423.564C293.343,423.564 291.61,419.401 291.61,414.273Z" style="fill:rgb(53,17,0);stroke:black;stroke-width:1.09px;"/>
                                    </g>
                                </g>
                                <path d="M280.967,405.328L281.021,403.202C281.105,402.322 301.875,395.557 312.219,395.169C316.135,395.022 318.557,395.483 317.797,397.97C315.605,405.144 314.21,401.368 295.687,402.329C282.261,403.026 280.967,405.328 280.967,405.328Z" style="fill:rgb(47,18,5);stroke:black;stroke-width:0.84px;"/>
                            </g>
                            <g transform="matrix(0.651366,0,0,0.651366,742.275,62.0032)">
                                <path d="M311.528,453.686C320.525,458.94 330.205,459.271 340.692,453.798" style="fill:none;stroke:black;stroke-width:1.54px;"/>
                            </g>
                            <g>
                                <g transform="matrix(1,0,0,1,365.134,2.02127)">
                                    <path d="M593.004,340.915C594.559,341.994 593.797,342.963 592.146,343.89" style="fill:none;stroke:black;stroke-width:1px;"/>
                                </g>
                                <g transform="matrix(0.651366,0,0,0.651366,741.586,56.0173)">
                                    <path d="M320.528,431.695L320.299,436.215C320.299,436.215 315.445,439.002 316.523,441.592C317.971,445.069 323.474,445.539 323.617,444.968" style="fill:none;stroke:black;stroke-width:1.54px;"/>
                                </g>
                            </g>
                        </g>
                        <g transform="matrix(0.838735,0,0,0.969518,71.2881,-352.334)">
                            <path d="M1005.67,695.23C1001.84,697.958 1003.16,661.633 1004.07,657.632C1004.98,653.631 1015.63,625.408 1053.22,624.585C1074.79,624.112 1096.61,635.586 1102.37,652.894C1107.12,667.152 1100.39,699.038 1100.45,694.207C1100.53,686.765 1100.3,681.73 1090.13,670.365C1080.58,659.693 1078.42,662.392 1053.22,662.53C1034.64,662.632 1029.14,659.146 1018.72,670.034C1005.42,683.938 1009.51,692.502 1005.67,695.23Z" style="fill:rgb(47,18,5);stroke:rgb(47,18,5);stroke-width:0.58px;"/>
                        </g>
                    </g>
                </g>
                <g transform="matrix(0.476297,0,0,0.460322,334.126,381.077)">
                    <g transform="matrix(1,0,0,1,-4267.39,-74.171)">
                        <path d="M4864.27,496.34C4863.93,496.83 4863.21,498.426 4862.82,499.464C4862.82,499.464 4861.71,500.148 4860.99,501.854C4860.35,503.365 4860.08,505.912 4860.12,506.05C4861.16,509.404 4877.5,512.859 4892.88,512.948C4903.51,513.009 4915.68,511.307 4924.2,508.917C4932.75,506.519 4942.95,500.589 4944.65,499.13C4945.32,498.561 4944.74,497.105 4945.58,496.213C4947.57,494.1 4947.71,494.002 4949.69,492.289C4951.57,490.66 4953.03,488.453 4953.67,489.626C4954.32,490.799 4955.23,494.498 4955.37,495.213C4955.51,495.927 4970.51,489.168 4971.6,487.155C4972.09,486.238 4972.18,484.176 4972.21,481.919C4972.25,479.226 4972.2,476.33 4972.1,475.792C4971.92,474.804 4970.73,473.817 4970.73,473.817C4970.32,472.515 4970.04,471.148 4969.63,470.496L4864.27,496.34Z" style="fill:rgb(44,44,44);"/>
                    </g>
                    <g transform="matrix(1,0,0,1,-4267.39,-74.171)">
                        <path d="M4862.81,499.47C4866.57,501.549 4873.35,504.016 4881.58,504.784C4884,505.011 4886.55,505.104 4889.19,505.019C4908.86,504.384 4918.09,502.548 4929.48,498.882C4941.25,495.094 4945.19,488.741 4949.95,485.335C4954.79,481.873 4959.67,479.278 4963.96,477.664C4968.31,476.026 4971.17,474.237 4971.01,474.078C4971.17,474.237 4970.94,474.006 4970.94,474.006C4970.87,473.939 4970.73,473.807 4970.73,473.807C4970.73,473.807 4967.77,475.318 4963.65,476.966C4958.72,478.94 4952.83,482.101 4950.17,484.182C4942.75,489.965 4940.28,494.302 4929.39,497.499C4918.01,500.84 4904.14,504.205 4889.15,503.845C4880.35,503.634 4871.99,502.683 4866.72,500.661C4865.2,500.083 4863.77,499.501 4863.18,498.557L4862.81,499.47Z"/>
                    </g>
                    <g transform="matrix(1,0,0,1,-4269.55,-70.715)">
                        <path d="M4862.79,499.491C4867.28,501.206 4873.97,503.706 4881.58,504.784C4883.99,505.126 4888.31,505.503 4890.94,505.458C4910.61,505.119 4918.85,502.628 4930.45,499.489C4939.87,496.94 4946.31,489.24 4951.22,486.05C4956.2,482.814 4960.3,480.926 4964.48,479.138C4968.76,477.309 4974.37,474.372 4974.37,474.372L4974.33,473.275C4974.33,473.275 4968.28,476.765 4964.18,478.439C4959.4,480.388 4953.72,483.372 4950.9,485.477C4946.14,489.039 4942.27,493.239 4937.76,495.751C4935.13,497.212 4931.86,497.613 4929.32,498.437C4918.03,502.089 4903.57,503.7 4889.15,503.845C4880.35,503.934 4872.89,501.868 4867.61,499.847C4866.1,499.268 4865.36,499.208 4863.28,498.123C4863.07,498.555 4862.93,499.02 4862.79,499.491Z"/>
                    </g>
                    <g transform="matrix(1,0,0,1,-4267.39,-74.171)">
                        <path d="M4961.19,408.624C4950.82,406.618 4952.96,406.742 4943.79,406.98C4934.61,407.218 4930.67,406.142 4928.69,406.98C4926.72,407.818 4926.38,409.019 4926.64,411.677C4926.89,414.335 4944.56,415.278 4952.28,414.335C4959.99,413.392 4971.57,410.63 4961.19,408.624Z" style="fill:rgb(64,48,36);"/>
                    </g>
                    <g transform="matrix(1,0,0,1,-4267.39,-74.171)">
                        <path d="M4950.26,427.646C4948.72,427.499 4941.16,420.524 4941.1,417.948C4940.95,412.169 4944.21,409.833 4947.56,410.234C4950.91,410.634 4953.8,410.316 4957.42,410.234C4961.04,410.151 4963.69,410.151 4962.49,408.946C4961.28,407.74 4968.84,409.83 4967.79,416.823C4966.75,423.817 4966.93,425.699 4958.5,426.803C4951.86,427.673 4953.33,427.562 4950.26,427.646Z" style="fill:rgb(78,78,78);"/>
                    </g>
                    <g transform="matrix(1,0,0,1,-4267.39,-74.171)">
                        <path d="M4965.94,423.984C4965.94,423.984 4965.98,428.155 4966.07,434.171C4966.19,442.952 4970.83,456.532 4970.73,462.857C4970.62,469.587 4970.8,472.797 4960.17,476.737C4947.72,481.349 4940.7,488.881 4937.18,491.518C4933.66,494.156 4912.76,501.926 4888.32,501.567C4873.73,501.352 4863.83,497.798 4864.08,496.04C4864.33,494.282 4861.56,481.423 4871.99,477.828C4883.38,473.903 4899.2,464.46 4907.39,456.852C4910.98,453.513 4922.11,442.659 4922.86,436.755C4923.62,430.852 4926.88,424.446 4926.88,424.446C4926.88,424.446 4945.59,426.564 4951.88,426.958C4961.31,427.549 4965.94,423.984 4965.94,423.984Z" style="fill:rgb(135,72,21);"/>
                    </g>
                    <g transform="matrix(1,0,0,1,-4267.39,-74.171)">
                        <path d="M4929.96,410.234C4930.22,406.754 4932.96,402.227 4936.3,402.33C4939.63,402.433 4938.4,402.433 4940.61,402.741C4942.82,403.05 4947.66,404.027 4947.56,408.452C4947.45,412.876 4924.54,469.192 4924.54,469.192L4902.06,459.898C4902.06,459.898 4911.74,449.688 4919.09,436.962C4925.59,425.702 4929.84,411.867 4929.96,410.234Z" style="fill:rgb(135,72,21);"/>
                    </g>
                    <g transform="matrix(1,0,0,1,-4266.66,-74.2883)">
                        <path d="M4908.87,452.846C4912.18,451.06 4919.77,450.435 4923.61,452.846" style="fill:none;stroke:black;stroke-width:2.81px;"/>
                    </g>
                    <g transform="matrix(1.12308,0,0,1.16906,-4869.22,-148.857)">
                        <path d="M4908.87,445.79C4911.82,448.827 4916.19,453.025 4918.16,455.258" style="fill:none;stroke:black;stroke-width:2.45px;"/>
                    </g>
                    <g transform="matrix(1,0,0,1,-4267.39,-74.171)">
                        <path d="M4927.43,406.988C4928.27,407.245 4930.2,408.749 4929.94,411.824C4929.68,414.898 4928.33,421.494 4927.3,423.984C4926.27,426.474 4921.33,437.342 4919.36,438.885C4917.4,440.429 4912.96,448.596 4910,451.94C4907.05,455.284 4902.09,462.818 4900.49,462.781C4898.88,462.744 4903.06,457.792 4904.47,455.67C4905.89,453.548 4906.47,451.683 4908.85,448.789C4911.23,445.895 4914.81,441.329 4917.33,437.471C4919.84,433.612 4920.74,432.133 4921.64,428.339C4922.54,424.545 4923.19,422.294 4923.96,417.471C4924.73,412.647 4926.6,406.731 4927.43,406.988Z" style="fill:rgb(65,30,0);"/>
                    </g>
                    <g transform="matrix(1,0,0,1,-4267.39,-74.171)">
                        <path d="M4926.21,472.19C4926.21,472.19 4918.43,466.852 4919.46,461.258C4920.49,455.663 4923.51,453.54 4925.82,450.132C4928.14,446.724 4931.37,440.952 4935.66,440.228C4937.99,439.836 4936.96,434.289 4937.09,431.717C4937.21,429.144 4939.04,419.221 4939.51,417.641C4939.97,416.06 4941.41,409.999 4944.96,410.241C4948.52,410.482 4950.96,410.596 4951.78,410.647C4952.97,410.721 4953.42,411.355 4953.16,414.837C4952.88,418.69 4950.65,435.866 4948.36,438.63C4945.41,442.178 4941.55,446.228 4938.33,450.81C4935.12,455.392 4926.21,472.19 4926.21,472.19Z" style="fill:rgb(65,30,0);"/>
                    </g>
                    <g>
                        <g transform="matrix(0.822171,0,0,0.764463,-3391.83,34.0268)">
                            <path d="M4923.61,459.367C4918.69,456.776 4902.58,452.31 4902.06,452.846" style="fill:none;stroke:black;stroke-width:3.54px;"/>
                        </g>
                        <g transform="matrix(1.105,0,0,1.21912,-4785.12,-173.397)">
                            <path d="M4916.46,443.063C4918.96,444.183 4930.66,451.417 4930.75,452.846" style="fill:none;stroke:black;stroke-width:2.41px;"/>
                        </g>
                        <g transform="matrix(1.12818,0,0,1,-4895.32,-73.9515)">
                            <path d="M4930.75,444.54C4924.59,443.647 4909.23,441.146 4909.94,445.79" style="fill:none;stroke:black;stroke-width:2.63px;"/>
                        </g>
                        <g transform="matrix(0.974289,0,0,1,-4140.31,-74.171)">
                            <path d="M4942.51,436.323C4939.6,437.93 4916.82,433.107 4914.5,440.253" style="fill:none;stroke:black;stroke-width:2.85px;"/>
                        </g>
                        <g transform="matrix(0.968072,0,0,1,-4109.55,-74.171)">
                            <path d="M4943.49,428.3C4939.24,429.713 4921.64,423.822 4920.57,429.805" style="fill:none;stroke:black;stroke-width:2.85px;"/>
                        </g>
                        <g transform="matrix(0.940063,0,0,1.01142,-3971.15,-79.1058)">
                            <path d="M4921.91,424.294C4922.62,426.408 4939.53,427.664 4942.51,432.306" style="fill:none;stroke:black;stroke-width:2.88px;"/>
                        </g>
                        <g transform="matrix(0.962514,-0.059977,0,1,-4081.94,222.545)">
                            <path d="M4947.17,417.642C4947.17,417.642 4943.44,420.949 4931.83,420.322C4920.22,419.696 4923.08,419.203 4923.08,419.203" style="fill:none;stroke:black;stroke-width:2.95px;"/>
                        </g>
                        <g transform="matrix(0.949731,0,0,0.91465,-4018.89,-37.9574)">
                            <path d="M4924.38,414.113C4927.9,416.481 4941.03,421.478 4943.49,424.294" style="fill:none;stroke:black;stroke-width:3.01px;"/>
                        </g>
                        <g transform="matrix(0.895473,0,0,0.984294,-3751.55,-67.1696)">
                            <path d="M4919.23,431.232C4918.78,436.68 4934.46,439.359 4934.97,445.79" style="fill:none;stroke:black;stroke-width:2.99px;"/>
                        </g>
                    </g>
                    <g transform="matrix(62.4409,0,0,1,-308225,-74.171)">
                        <ellipse cx="4947.16" cy="417.507" rx="0.045" ry="2.816"/>
                    </g>
                    <g transform="matrix(62.4409,0,0,0.861941,-308237,12.7463)">
                        <ellipse cx="4947.16" cy="417.507" rx="0.045" ry="2.816"/>
                    </g>
                    <g transform="matrix(62.4409,0,0,0.861941,-308242,19.423)">
                        <ellipse cx="4947.16" cy="417.507" rx="0.045" ry="2.816"/>
                    </g>
                    <g transform="matrix(62.4409,0,0,0.861941,-308247,26.3173)">
                        <ellipse cx="4947.16" cy="417.507" rx="0.045" ry="2.816"/>
                    </g>
                    <g transform="matrix(1,0,0,1,-4267.39,-74.171)">
                        <path d="M4942.57,425.369C4942.77,424.105 4945.77,423.993 4946.58,424.835C4947.38,425.676 4947.36,428.661 4946.56,429.174C4945.75,429.686 4943.95,430.419 4942.99,428.881C4942.43,427.996 4942.47,425.954 4942.57,425.369Z"/>
                    </g>
                    <g transform="matrix(1,0,0,1,-4268.85,-65.9395)">
                        <path d="M4942.98,424.9C4943.18,423.637 4945.77,423.993 4946.58,424.835C4947.38,425.676 4947.36,428.661 4946.56,429.174C4945.75,429.686 4943.51,429.804 4942.99,428.881C4942.47,427.973 4942.88,425.486 4942.98,424.9Z"/>
                    </g>
                    <g transform="matrix(1,0,0,1,-4266.2,-73.6222)">
                        <path d="M4918.88,429.805C4918.97,428.812 4919.79,427.783 4920.16,427.352C4920.54,426.921 4921.79,427.938 4921.62,429.075C4921.46,430.191 4921.55,430.986 4920.11,430.93C4918.66,430.874 4918.78,430.797 4918.88,429.805Z"/>
                    </g>
                    <g transform="matrix(1.14169,0,0,1,-4961.11,-81.0081)">
                        <path d="M4918.79,429.61C4918.74,428.272 4919.41,427.288 4919.78,426.858C4920.16,426.427 4921.8,428.133 4921.64,429.27C4921.47,430.386 4921.53,431.278 4920.09,431.222C4918.65,431.166 4918.82,430.607 4918.79,429.61Z"/>
                    </g>
                    <g transform="matrix(2.27927,0,0,1,-10567,-74.171)">
                        <ellipse cx="4925.07" cy="414.113" rx="0.686" ry="2.715"/>
                    </g>
                </g>
                <g transform="matrix(-0.476297,0,0,0.460322,1056.99,380.436)">
                    <g transform="matrix(1,0,0,1,-4267.39,-74.171)">
                        <path d="M4864.27,496.34C4863.93,496.83 4863.21,498.426 4862.82,499.464C4862.82,499.464 4861.71,500.148 4860.99,501.854C4860.35,503.365 4860.08,505.912 4860.12,506.05C4861.16,509.404 4877.5,512.859 4892.88,512.948C4903.51,513.009 4915.68,511.307 4924.2,508.917C4932.75,506.519 4942.95,500.589 4944.65,499.13C4945.32,498.561 4944.74,497.105 4945.58,496.213C4947.57,494.1 4947.71,494.002 4949.69,492.289C4951.57,490.66 4953.03,488.453 4953.67,489.626C4954.32,490.799 4955.23,494.498 4955.37,495.213C4955.51,495.927 4970.51,489.168 4971.6,487.155C4972.09,486.238 4972.18,484.176 4972.21,481.919C4972.25,479.226 4972.2,476.33 4972.1,475.792C4971.92,474.804 4970.73,473.817 4970.73,473.817C4970.32,472.515 4970.04,471.148 4969.63,470.496L4864.27,496.34Z" style="fill:rgb(44,44,44);"/>
                    </g>
                    <g transform="matrix(1,0,0,1,-4267.39,-74.171)">
                        <path d="M4862.81,499.47C4866.57,501.549 4873.35,504.016 4881.58,504.784C4884,505.011 4886.55,505.104 4889.19,505.019C4908.86,504.384 4918.09,502.548 4929.48,498.882C4941.25,495.094 4945.19,488.741 4949.95,485.335C4954.79,481.873 4959.67,479.278 4963.96,477.664C4968.31,476.026 4971.17,474.237 4971.01,474.078C4971.17,474.237 4970.94,474.006 4970.94,474.006C4970.87,473.939 4970.73,473.807 4970.73,473.807C4970.73,473.807 4967.77,475.318 4963.65,476.966C4958.72,478.94 4952.83,482.101 4950.17,484.182C4942.75,489.965 4940.28,494.302 4929.39,497.499C4918.01,500.84 4904.14,504.205 4889.15,503.845C4880.35,503.634 4871.99,502.683 4866.72,500.661C4865.2,500.083 4863.77,499.501 4863.18,498.557L4862.81,499.47Z"/>
                    </g>
                    <g transform="matrix(1,0,0,1,-4269.55,-70.715)">
                        <path d="M4862.79,499.491C4867.28,501.206 4873.97,503.706 4881.58,504.784C4883.99,505.126 4888.31,505.503 4890.94,505.458C4910.61,505.119 4918.85,502.628 4930.45,499.489C4939.87,496.94 4946.31,489.24 4951.22,486.05C4956.2,482.814 4960.3,480.926 4964.48,479.138C4968.76,477.309 4974.37,474.372 4974.37,474.372L4974.33,473.275C4974.33,473.275 4968.28,476.765 4964.18,478.439C4959.4,480.388 4953.72,483.372 4950.9,485.477C4946.14,489.039 4942.27,493.239 4937.76,495.751C4935.13,497.212 4931.86,497.613 4929.32,498.437C4918.03,502.089 4903.57,503.7 4889.15,503.845C4880.35,503.934 4872.89,501.868 4867.61,499.847C4866.1,499.268 4865.36,499.208 4863.28,498.123C4863.07,498.555 4862.93,499.02 4862.79,499.491Z"/>
                    </g>
                    <g transform="matrix(1,0,0,1,-4267.39,-74.171)">
                        <path d="M4961.19,408.624C4950.82,406.618 4952.96,406.742 4943.79,406.98C4934.61,407.218 4930.67,406.142 4928.69,406.98C4926.72,407.818 4926.38,409.019 4926.64,411.677C4926.89,414.335 4944.56,415.278 4952.28,414.335C4959.99,413.392 4971.57,410.63 4961.19,408.624Z" style="fill:rgb(64,48,36);"/>
                    </g>
                    <g transform="matrix(1,0,0,1,-4267.39,-74.171)">
                        <path d="M4950.26,427.646C4948.72,427.499 4941.16,420.524 4941.1,417.948C4940.95,412.169 4944.21,409.833 4947.56,410.234C4950.91,410.634 4953.8,410.316 4957.42,410.234C4961.04,410.151 4963.69,410.151 4962.49,408.946C4961.28,407.74 4968.84,409.83 4967.79,416.823C4966.75,423.817 4966.93,425.699 4958.5,426.803C4951.86,427.673 4953.33,427.562 4950.26,427.646Z" style="fill:rgb(78,78,78);"/>
                    </g>
                    <g transform="matrix(1,0,0,1,-4267.39,-74.171)">
                        <path d="M4965.94,423.984C4965.94,423.984 4965.98,428.155 4966.07,434.171C4966.19,442.952 4970.83,456.532 4970.73,462.857C4970.62,469.587 4970.8,472.797 4960.17,476.737C4947.72,481.349 4940.7,488.881 4937.18,491.518C4933.66,494.156 4912.76,501.926 4888.32,501.567C4873.73,501.352 4863.83,497.798 4864.08,496.04C4864.33,494.282 4861.56,481.423 4871.99,477.828C4883.38,473.903 4899.2,464.46 4907.39,456.852C4910.98,453.513 4922.11,442.659 4922.86,436.755C4923.62,430.852 4926.88,424.446 4926.88,424.446C4926.88,424.446 4945.59,426.564 4951.88,426.958C4961.31,427.549 4965.94,423.984 4965.94,423.984Z" style="fill:rgb(135,72,21);"/>
                    </g>
                    <g transform="matrix(1,0,0,1,-4267.39,-74.171)">
                        <path d="M4929.96,410.234C4930.22,406.754 4932.96,402.227 4936.3,402.33C4939.63,402.433 4938.4,402.433 4940.61,402.741C4942.82,403.05 4947.66,404.027 4947.56,408.452C4947.45,412.876 4924.54,469.192 4924.54,469.192L4902.06,459.898C4902.06,459.898 4911.74,449.688 4919.09,436.962C4925.59,425.702 4929.84,411.867 4929.96,410.234Z" style="fill:rgb(135,72,21);"/>
                    </g>
                    <g transform="matrix(1,0,0,1,-4266.66,-74.2883)">
                        <path d="M4908.87,452.846C4912.18,451.06 4919.77,450.435 4923.61,452.846" style="fill:none;stroke:black;stroke-width:2.81px;"/>
                    </g>
                    <g transform="matrix(1.12308,0,0,1.16906,-4869.22,-148.857)">
                        <path d="M4908.87,445.79C4911.82,448.827 4916.19,453.025 4918.16,455.258" style="fill:none;stroke:black;stroke-width:2.45px;"/>
                    </g>
                    <g transform="matrix(1,0,0,1,-4267.39,-74.171)">
                        <path d="M4927.43,406.988C4928.27,407.245 4930.2,408.749 4929.94,411.824C4929.68,414.898 4928.33,421.494 4927.3,423.984C4926.27,426.474 4921.33,437.342 4919.36,438.885C4917.4,440.429 4912.96,448.596 4910,451.94C4907.05,455.284 4902.09,462.818 4900.49,462.781C4898.88,462.744 4903.06,457.792 4904.47,455.67C4905.89,453.548 4906.47,451.683 4908.85,448.789C4911.23,445.895 4914.81,441.329 4917.33,437.471C4919.84,433.612 4920.74,432.133 4921.64,428.339C4922.54,424.545 4923.19,422.294 4923.96,417.471C4924.73,412.647 4926.6,406.731 4927.43,406.988Z" style="fill:rgb(65,30,0);"/>
                    </g>
                    <g transform="matrix(1,0,0,1,-4267.39,-74.171)">
                        <path d="M4926.21,472.19C4926.21,472.19 4918.43,466.852 4919.46,461.258C4920.49,455.663 4923.51,453.54 4925.82,450.132C4928.14,446.724 4931.37,440.952 4935.66,440.228C4937.99,439.836 4936.96,434.289 4937.09,431.717C4937.21,429.144 4939.04,419.221 4939.51,417.641C4939.97,416.06 4941.41,409.999 4944.96,410.241C4948.52,410.482 4950.96,410.596 4951.78,410.647C4952.97,410.721 4953.42,411.355 4953.16,414.837C4952.88,418.69 4950.65,435.866 4948.36,438.63C4945.41,442.178 4941.55,446.228 4938.33,450.81C4935.12,455.392 4926.21,472.19 4926.21,472.19Z" style="fill:rgb(65,30,0);"/>
                    </g>
                    <g>
                        <g transform="matrix(0.822171,0,0,0.764463,-3391.83,34.0268)">
                            <path d="M4923.61,459.367C4918.69,456.776 4902.58,452.31 4902.06,452.846" style="fill:none;stroke:black;stroke-width:3.54px;"/>
                        </g>
                        <g transform="matrix(1.105,0,0,1.21912,-4785.12,-173.397)">
                            <path d="M4916.46,443.063C4918.96,444.183 4930.66,451.417 4930.75,452.846" style="fill:none;stroke:black;stroke-width:2.41px;"/>
                        </g>
                        <g transform="matrix(1.12818,0,0,1,-4895.32,-73.9515)">
                            <path d="M4930.75,444.54C4924.59,443.647 4909.23,441.146 4909.94,445.79" style="fill:none;stroke:black;stroke-width:2.63px;"/>
                        </g>
                        <g transform="matrix(0.974289,0,0,1,-4140.31,-74.171)">
                            <path d="M4942.51,436.323C4939.6,437.93 4916.82,433.107 4914.5,440.253" style="fill:none;stroke:black;stroke-width:2.85px;"/>
                        </g>
                        <g transform="matrix(0.968072,0,0,1,-4109.55,-74.171)">
                            <path d="M4943.49,428.3C4939.24,429.713 4921.64,423.822 4920.57,429.805" style="fill:none;stroke:black;stroke-width:2.85px;"/>
                        </g>
                        <g transform="matrix(0.940063,0,0,1.01142,-3971.15,-79.1058)">
                            <path d="M4921.91,424.294C4922.62,426.408 4939.53,427.664 4942.51,432.306" style="fill:none;stroke:black;stroke-width:2.88px;"/>
                        </g>
                        <g transform="matrix(0.962514,-0.059977,0,1,-4081.94,222.545)">
                            <path d="M4947.17,417.642C4947.17,417.642 4943.44,420.949 4931.83,420.322C4920.22,419.696 4923.08,419.203 4923.08,419.203" style="fill:none;stroke:black;stroke-width:2.95px;"/>
                        </g>
                        <g transform="matrix(0.949731,0,0,0.91465,-4018.89,-37.9574)">
                            <path d="M4924.38,414.113C4927.9,416.481 4941.03,421.478 4943.49,424.294" style="fill:none;stroke:black;stroke-width:3.01px;"/>
                        </g>
                        <g transform="matrix(0.895473,0,0,0.984294,-3751.55,-67.1696)">
                            <path d="M4919.23,431.232C4918.78,436.68 4934.46,439.359 4934.97,445.79" style="fill:none;stroke:black;stroke-width:2.99px;"/>
                        </g>
                    </g>
                    <g transform="matrix(62.4409,0,0,1,-308225,-74.171)">
                        <ellipse cx="4947.16" cy="417.507" rx="0.045" ry="2.816"/>
                    </g>
                    <g transform="matrix(62.4409,0,0,0.861941,-308237,12.7463)">
                        <ellipse cx="4947.16" cy="417.507" rx="0.045" ry="2.816"/>
                    </g>
                    <g transform="matrix(62.4409,0,0,0.861941,-308242,19.423)">
                        <ellipse cx="4947.16" cy="417.507" rx="0.045" ry="2.816"/>
                    </g>
                    <g transform="matrix(62.4409,0,0,0.861941,-308247,26.3173)">
                        <ellipse cx="4947.16" cy="417.507" rx="0.045" ry="2.816"/>
                    </g>
                    <g transform="matrix(1,0,0,1,-4267.39,-74.171)">
                        <path d="M4942.57,425.369C4942.77,424.105 4945.77,423.993 4946.58,424.835C4947.38,425.676 4947.36,428.661 4946.56,429.174C4945.75,429.686 4943.95,430.419 4942.99,428.881C4942.43,427.996 4942.47,425.954 4942.57,425.369Z"/>
                    </g>
                    <g transform="matrix(1,0,0,1,-4268.85,-65.9395)">
                        <path d="M4942.98,424.9C4943.18,423.637 4945.77,423.993 4946.58,424.835C4947.38,425.676 4947.36,428.661 4946.56,429.174C4945.75,429.686 4943.51,429.804 4942.99,428.881C4942.47,427.973 4942.88,425.486 4942.98,424.9Z"/>
                    </g>
                    <g transform="matrix(1,0,0,1,-4266.2,-73.6222)">
                        <path d="M4918.88,429.805C4918.97,428.812 4919.79,427.783 4920.16,427.352C4920.54,426.921 4921.79,427.938 4921.62,429.075C4921.46,430.191 4921.55,430.986 4920.11,430.93C4918.66,430.874 4918.78,430.797 4918.88,429.805Z"/>
                    </g>
                    <g transform="matrix(1.14169,0,0,1,-4961.11,-81.0081)">
                        <path d="M4918.79,429.61C4918.74,428.272 4919.41,427.288 4919.78,426.858C4920.16,426.427 4921.8,428.133 4921.64,429.27C4921.47,430.386 4921.53,431.278 4920.09,431.222C4918.65,431.166 4918.82,430.607 4918.79,429.61Z"/>
                    </g>
                    <g transform="matrix(2.27927,0,0,1,-10567,-74.171)">
                        <ellipse cx="4925.07" cy="414.113" rx="0.686" ry="2.715"/>
                    </g>
                </g>
                <g>
                    <g transform="matrix(1,0,0,1,-4297.73,-30.304)">
                        <path d="M4946.31,321.276C4945.45,325.686 4943.26,331.701 4941.31,338.663C4939.3,345.808 4937.55,353.951 4937.75,362.382C4938.03,374.385 4936.04,394.29 4937.75,403.889C4939.41,413.222 4939.69,430.544 4940.92,433.522C4942.07,436.285 4941.98,442.88 4942.11,445.395C4942.69,456.765 4939.86,460.232 4939.75,464.884C4939.65,469.538 4942.2,522.622 4942.73,528.282C4943.27,533.916 4944.43,551.047 4944.75,555.323C4945.07,559.588 4944.95,561.396 4944.62,566.212C4944.4,569.496 4970.03,570.866 4971.03,566.715C4971.36,565.349 4970.92,555.999 4971.05,543.657C4971.31,518.509 4975.98,481.341 4976.32,476.785C4976.82,469.993 4975.13,464.437 4975.26,461.418C4975.39,458.4 4977.22,439.499 4981.43,425.525C4988.87,400.846 4992.92,384.13 4992.36,374.407C4992.18,371.107 4992.41,367.911 4995.02,367.981C4997.27,368.043 4998.01,369.199 4998.02,374.407C4998.05,388.156 4998.35,391.106 5007.19,423.126C5011.94,440.331 5016.61,457.933 5016.86,463.592C5017.11,469.252 5015.16,472.397 5015.28,478.686C5015.35,482.255 5016.8,509.374 5017.08,533.105C5017.29,551.181 5016.6,567.507 5016.54,568.615C5016.4,571.453 5042.86,572.763 5042.76,568.615C5042.64,563.948 5043.3,554.3 5044.1,549.53C5044.9,544.685 5043.72,534.21 5044.82,528.236C5045.92,522.261 5047.68,479.193 5048.22,471.031C5048.65,464.661 5045.81,457.183 5045.9,448.623C5046.03,437.712 5048.46,428.658 5048.42,422.975C5048.35,412.878 5051.63,381.438 5051.77,364.313C5051.93,344.998 5042.76,321.172 5042.76,321.172L4946.31,321.276Z" style="fill:rgb(29,86,137);stroke:black;stroke-width:0.78px;"/>
                    </g>
                    <g transform="matrix(1,0,0,1,-4297.73,-30.304)">
                        <path d="M5039.47,309.577L4949.79,309.681L4946.65,321.276L5042.76,321.172L5039.47,309.577Z" style="fill:rgb(29,86,137);stroke:black;stroke-width:0.78px;"/>
                    </g>
                    <g transform="matrix(1,0,0,1,-4297.73,-30.304)">
                        <path d="M4993.4,309.577C4988.95,312.617 4989.02,319.197 4993.22,321.172" style="fill:none;stroke:black;stroke-width:0.78px;"/>
                    </g>
                    <g transform="matrix(1,0,0,1,-4297.73,-30.304)">
                        <path d="M5004.68,315.378C5004.68,315.378 4995.97,312.779 4995.88,315.374C4995.76,318.77 5004.68,315.378 5004.68,315.378Z" style="fill:rgb(23,68,108);stroke:rgb(248,166,2);stroke-width:0.78px;"/>
                    </g>
                    <g transform="matrix(16.3998,0,0,1,-81233.9,-30.304)">
                        <ellipse cx="4995.91" cy="315.378" rx="0.151" ry="2.23" style="fill:rgb(255,170,0);stroke:rgb(248,166,2);stroke-width:0.07px;"/>
                    </g>
                    <g transform="matrix(1,0,0,1,-4297.73,-30.304)">
                        <path d="M4964.73,321.172L4968.27,321.172C4965.33,334.653 4956.51,340.741 4941.03,340.313L4941.68,337.912C4957.95,338.022 4964.15,331.11 4964.73,321.172Z" style="fill:rgb(23,68,108);stroke:black;stroke-width:0.78px;"/>
                    </g>
                    <g transform="matrix(-1,0,0,1,5693.27,-30.304)">
                        <path d="M4964.73,321.172L4968.27,321.172C4965.33,334.653 4958.2,340.762 4942.73,340.334L4943.37,337.933C4959.65,338.044 4964.15,331.11 4964.73,321.172Z" style="fill:rgb(23,68,108);stroke:black;stroke-width:0.78px;"/>
                    </g>
                    <g transform="matrix(1,0,0,1,-4297.73,-30.304)">
                        <path d="M4972.83,309.577L4975.85,309.577L4972.35,325.639L4969.1,325.639L4972.83,309.577Z" style="fill:rgb(23,68,108);stroke:black;stroke-width:0.78px;"/>
                    </g>
                    <g transform="matrix(-1,0,0,1,5693.48,-30.304)">
                        <path d="M4972.83,309.577L4975.85,309.577L4972.35,325.639L4969.1,325.639L4972.83,309.577Z" style="fill:rgb(23,68,108);stroke:black;stroke-width:0.78px;"/>
                    </g>
                    <g transform="matrix(1,0,0,1,-4297.73,-30.304)">
                        <path d="M5002.48,321.172L5005.41,321.172C5005.41,321.172 5005.35,331.725 5004.91,340.126C5004.52,347.615 5001.05,352.218 4994.12,352.532L4994.12,350.224C5000.75,349.993 5002.56,345.549 5002.61,339.343C5002.61,338.128 5002.48,321.172 5002.48,321.172Z" style="fill:rgb(23,68,108);stroke:black;stroke-width:0.78px;"/>
                    </g>
                    <g transform="matrix(1,0,0,1,-4297.73,-30.304)">
                        <path d="M4993.84,321.172L4994.4,367.465" style="fill:none;stroke:black;stroke-width:0.78px;"/>
                    </g>
                </g>
                <g transform="matrix(1.1396,0,0,1.10138,-405.379,-81.0169)">
                    <g transform="matrix(0.542468,-0.40214,0.373424,0.503732,295.298,547.594)">
                        <g>
                            <g transform="matrix(0.040062,-0.0444654,0.0458763,0.0413331,607.906,524.23)">
                                <clipPath id="_clip1">
                                    <rect x="5825.11" y="1892.32" width="191.245" height="212.376"/>
                                </clipPath>
                                <g clip-path="url(#_clip1)">
                                    <path d="M6016.36,1923.29C6016.36,1906.2 6001.97,1892.32 5984.24,1892.32L5474.73,1892.32C5457,1892.32 5442.61,1906.2 5442.61,1923.29L5442.61,2166.11C5442.61,2183.21 5457,2197.09 5474.73,2197.09L5984.24,2197.09C6001.97,2197.09 6016.36,2183.21 6016.36,2166.11L6016.36,1923.29Z" style="fill:rgb(0,38,115);"/>
                                </g>
                            </g>
                            <g transform="matrix(0.0471062,-0.0287569,0.0287569,0.0471062,881.834,357.623)">
                                <clipPath id="_clip2">
                                    <rect x="818.642" y="218.552" width="287.906" height="218.258"/>
                                </clipPath>
                                <g clip-path="url(#_clip2)">
                                    <g transform="matrix(1.08445,0,0,1.11886,-5417.89,-1898.68)">
                                        <path d="M6016.36,1923.29C6016.36,1906.2 6002.54,1892.32 5985.53,1892.32L5473.44,1892.32C5456.42,1892.32 5442.61,1906.2 5442.61,1923.29L5442.61,2166.11C5442.61,2183.21 5456.42,2197.09 5473.44,2197.09L5985.53,2197.09C6002.54,2197.09 6016.36,2183.21 6016.36,2166.11L6016.36,1923.29Z" style="fill:white;"/>
                                    </g>
                                    <g transform="matrix(1.08445,0,0,1.11886,-5417.89,-1898.68)">
                                        <clipPath id="_clip3">
                                            <rect x="5442.61" y="2140.07" width="573.748" height="57.021"/>
                                        </clipPath>
                                        <g clip-path="url(#_clip3)">
                                            <path d="M6016.36,1923.29C6016.36,1906.2 6002.54,1892.32 5985.53,1892.32L5473.44,1892.32C5456.42,1892.32 5442.61,1906.2 5442.61,1923.29L5442.61,2166.11C5442.61,2183.21 5456.42,2197.09 5473.44,2197.09L5985.53,2197.09C6002.54,2197.09 6016.36,2183.21 6016.36,2166.11L6016.36,1923.29Z" style="fill:rgb(10,152,133);fill-opacity:0.71;"/>
                                        </g>
                                    </g>
                                    <g transform="matrix(1.08445,0,0,1.11886,-5417.89,-1898.68)">
                                        <clipPath id="_clip4">
                                            <rect x="5442.61" y="1892.32" width="573.748" height="34.611"/>
                                        </clipPath>
                                        <g clip-path="url(#_clip4)">
                                            <path d="M6016.36,1923.29C6016.36,1906.2 6002.54,1892.32 5985.53,1892.32L5473.44,1892.32C5456.42,1892.32 5442.61,1906.2 5442.61,1923.29L5442.61,2166.11C5442.61,2183.21 5456.42,2197.09 5473.44,2197.09L5985.53,2197.09C6002.54,2197.09 6016.36,2183.21 6016.36,2166.11L6016.36,1923.29Z" style="fill:rgb(10,152,133);"/>
                                        </g>
                                    </g>
                                </g>
                            </g>
                            <g transform="matrix(0.404851,-2.77556e-17,0,0.404851,-1129.83,204.145)">
                                <path d="M5137.4,349.615C5137.4,344.985 5133.89,341.226 5129.56,341.226L5065.82,341.226C5061.49,341.226 5057.98,344.985 5057.98,349.615L5057.98,356.06C5089.55,377.853 5114.06,382.205 5137.4,353.28L5137.4,349.615Z" style="fill:rgb(105,74,60);stroke:black;stroke-width:2.64px;"/>
                            </g>
                        </g>
                    </g>
                    <g transform="matrix(0.877498,-1.11022e-16,-1.11022e-16,0.90795,-3415.53,46.0448)">
                        <path d="M4964.73,321.172L4968.27,321.172C4965.33,334.653 4956.51,340.741 4941.03,340.313L4941.68,337.912C4957.95,338.022 4964.15,331.11 4964.73,321.172Z" style="fill:rgb(23,68,108);stroke:black;stroke-width:0.78px;"/>
                    </g>
                </g>
                <g transform="matrix(1.1396,0,0,1.10138,-405.379,-81.0169)">
                    <g transform="matrix(0.365852,0,0,0.365852,615.784,236.729)">
                        <g transform="matrix(1,0,0,1,-4267.39,-74.171)">
                            <path d="M5354.67,358.591C5354.67,353.868 5350.83,350.032 5346.11,350.032L5312.62,350.032C5307.9,350.032 5304.06,353.868 5304.06,358.591C5304.14,361.441 5303.7,368.165 5304.06,368.719C5312.92,382.16 5350.03,403.558 5354.67,394.192L5354.67,358.591Z" style="fill:rgb(141,141,141);"/>
                        </g>
                        <g transform="matrix(0.582625,0,0,0.582625,-2044.28,65.9037)">
                            <circle cx="5333.26" cy="394.408" r="6.888" style="fill:rgb(112,112,112);"/>
                        </g>
                        <g transform="matrix(0.280909,0,0,0.280909,-453.114,171.706)">
                            <circle cx="5333.26" cy="394.408" r="6.888"/>
                        </g>
                        <g transform="matrix(0.280909,0,0,0.280909,-448.619,171.706)">
                            <circle cx="5333.26" cy="394.408" r="6.888"/>
                        </g>
                        <g transform="matrix(0.0409366,0,0,0.0409366,834.594,266.353)">
                            <circle cx="5333.26" cy="394.408" r="6.888" style="fill:rgb(217,217,217);"/>
                        </g>
                    </g>
                    <g transform="matrix(-0.877498,1.11022e-16,0,0.90795,5351.55,46.0448)">
                        <path d="M4964.73,321.172L4968.27,321.172C4965.33,334.653 4958.2,340.762 4942.73,340.334L4943.37,337.933C4959.65,338.044 4964.15,331.11 4964.73,321.172Z" style="fill:rgb(23,68,108);stroke:black;stroke-width:0.78px;"/>
                    </g>
                </g>
                <g>
                    <g transform="matrix(0.898034,0,0,0.893707,-164.241,-197.955)">
                        <path d="M1009.43,533.987C1009.34,535.43 978.443,536.328 952.822,537.267C928.877,538.143 906.662,537.194 907.161,535.911C907.6,534.784 906.275,537.146 907.189,526.449C907.928,517.79 911.941,517.303 913.415,512.028C914.047,509.766 912.587,507.808 912.834,505.541C913.349,500.825 918.904,490.316 918.925,486.528C918.987,475.487 916.563,470.54 915.537,465.376C914.778,461.56 914.892,448.042 914.892,448.042L914.935,455.572C907.053,451.122 900.26,449.053 894.37,448.956C894.37,448.956 899.053,427.522 899.595,425.713C903.323,413.265 907.263,406.78 914.041,404.771C914.883,404.522 939.076,397.764 944.044,391.065C945.084,399.264 954.357,412.505 958.951,412.674C962.089,412.789 973.343,402.178 973.846,389.999C982.586,395.088 1005.19,406.492 1012.51,410.981C1016.66,413.524 1017.76,423.551 1018.97,430.202C1021.05,441.714 1021.25,449.937 1021.34,453.376C1016.44,455.005 1011.26,455.309 1003.66,455.462C1003.61,458.01 998.601,466.311 998.617,475.002C998.634,483.602 1000.33,493.951 1001.63,499.012C1003.08,504.684 1004.57,510.701 1005.93,518.653C1007.32,526.825 1009.66,530.162 1009.43,533.987Z" style="fill:white;stroke:black;stroke-width:1px;"/>
                    </g>
                    <g transform="matrix(0.401346,0,0,0.387885,423.384,47.6849)">
                        <g transform="matrix(0.89769,0,0,0.696041,-3694.88,59.229)">
                            <ellipse cx="4875.23" cy="527.639" rx="80.437" ry="104.595" style="fill:rgb(10,152,133);fill-opacity:0.28;stroke:black;stroke-width:2.9px;"/>
                        </g>
                        <g transform="matrix(0.785185,0,0,1,-3213.95,-74.171)">
                            <rect x="4903.94" y="444.166" width="114.682" height="112.983" style="fill:rgb(10,152,133);stroke:black;stroke-width:2.59px;"/>
                        </g>
                        <g transform="matrix(1.14619,0,0,-0.953268,-4975.85,837.673)">
                            <path d="M4935.83,431.343L4975.11,490.604L4896.55,490.604L4935.83,431.343Z" style="fill:rgb(10,152,133);stroke:black;stroke-width:2.21px;"/>
                        </g>
                        <g transform="matrix(2.83945,0,0,2.83945,-13410.4,-528.271)">
                            <path d="M4947.05,336.247L4962.95,336.247" style="fill:none;stroke:black;stroke-width:0.84px;stroke-linecap:butt;stroke-linejoin:miter;"/>
                        </g>
                        <g transform="matrix(1.98023e-16,2e-06,-3.23396,1.22465e-22,681.57,-15505.5)">
                            <rect x="4903.94" y="500.658" width="45.023" height="6.059" style="fill:none;stroke:black;stroke-width:1.02px;"/>
                        </g>
                    </g>
                </g>
            </g>
        </g>
    </g>
</svg>
