<?xml version="1.0" encoding="UTF-8" standalone="no"?>
<!DOCTYPE svg PUBLIC "-//W3C//DTD SVG 1.1//EN" "http://www.w3.org/Graphics/SVG/1.1/DTD/svg11.dtd">
<svg width="100%" height="100%" viewBox="0 0 114 119" version="1.1" xmlns="http://www.w3.org/2000/svg" xmlns:xlink="http://www.w3.org/1999/xlink" xml:space="preserve" xmlns:serif="http://www.serif.com/" style="fill-rule:evenodd;clip-rule:evenodd;stroke-linejoin:round;stroke-miterlimit:2;">
    <g transform="matrix(1,0,0,1,-2052.41,-2793.73)">
        <g transform="matrix(1,0,0,1,1353.52,2391.28)">
            <g transform="matrix(1.14814,0,0,1.14814,320.564,-394.978)">
                <g transform="matrix(1,0,0,1,132.719,8.65602)">
                    <path d="M283.051,786.357C283.051,780.591 277.948,774.762 270.699,775.269C263.322,775.784 255.703,767.647 255.703,760.789C255.703,755.425 265.429,753.743 265.429,755.127C265.429,762.106 275.378,769.6 282.052,769.941C289.437,770.318 295.889,776.239 295.889,783.097C295.889,789.955 283.051,789.834 283.051,786.357Z"/>
                </g>
                <g>
                    <g transform="matrix(0.47004,0,0,0.466163,-2230.8,-539.521)">
                        <circle cx="5547" cy="2747.26" r="67.812"/>
                    </g>
                    <g transform="matrix(0.215472,0,0,0.213695,-818.72,154.075)">
                        <circle cx="5547" cy="2747.26" r="67.812" style="fill:rgb(207,207,207);"/>
                    </g>
                </g>
                <g>
                    <g transform="matrix(0.989301,0,0,0.989301,4.02835,7.92983)">
                        <path d="M376.504,694.038C402.722,694.038 424.008,715.148 424.008,741.15C424.008,767.152 402.722,788.262 376.504,788.262C350.286,788.262 329,767.152 329,741.15C329,715.148 350.286,694.038 376.504,694.038ZM376.504,700.883C398.913,700.883 417.106,718.926 417.106,741.15C417.106,763.374 398.913,781.417 376.504,781.417C354.095,781.417 335.902,763.374 335.902,741.15C335.902,718.926 354.095,700.883 376.504,700.883Z" style="fill:rgb(10,152,133);"/>
                    </g>
                    <path d="M406.114,768.247C403.969,770.551 401.553,772.606 398.917,774.36C399.064,774.136 399.156,773.918 399.188,773.709C399.766,769.893 383.219,746.617 380.855,746.71C376.516,746.882 372.378,777.286 375.86,781.11C373.997,781.081 372.164,780.926 370.373,780.654C373.503,775.987 374.085,746.617 373.087,746.71C366.387,747.332 348.612,763.557 348.35,769.469C348.346,769.557 348.348,769.646 348.357,769.738C346.297,767.743 344.452,765.532 342.859,763.141C343.275,763.217 343.699,763.177 344.129,763.002C348.575,761.197 370.574,746.055 368.977,743.909C368.527,743.305 343.094,734.278 339.295,735.243C337.651,735.661 336.673,737.504 336.221,740.062C336.335,735.87 337.1,731.839 338.42,728.065C343.357,734.483 369.616,739.258 370.177,736.674C371.005,732.862 362.145,711.812 355.999,706.746C357.821,705.674 359.736,704.741 361.728,703.961C360.214,710.899 372.968,731.425 376.504,733.676C378.993,735.26 395.109,709.672 393.12,705.377C392.93,704.966 392.503,704.574 391.887,704.205C396.071,705.922 399.901,708.318 403.237,711.255C402.774,711.06 402.328,710.946 401.904,710.923C395.827,710.606 380.843,730.1 382.559,735.465C383.856,739.52 412.449,740.715 416.197,737.077C416.33,736.947 416.446,736.797 416.545,736.626C416.715,738.112 416.801,739.621 416.801,741.15C416.801,742.199 416.76,743.238 416.68,744.267C412.494,741.505 382.733,739.819 383.918,743.394C385.126,747.035 399.826,769.034 402.942,769.448C403.889,769.574 404.973,769.118 406.114,768.247Z" style="fill:rgb(10,152,133);"/>
                    <g transform="matrix(0.0316518,0,0,0.0313907,200.939,654.911)">
                        <circle cx="5547" cy="2747.26" r="67.812" style="fill:white;"/>
                    </g>
                </g>
            </g>
        </g>
    </g>
</svg>
