<?xml version="1.0" encoding="UTF-8" standalone="no"?>
<!DOCTYPE svg PUBLIC "-//W3C//DTD SVG 1.1//EN" "http://www.w3.org/Graphics/SVG/1.1/DTD/svg11.dtd">
<svg width="100%" height="100%" viewBox="0 0 128 127" version="1.1" xmlns="http://www.w3.org/2000/svg" xmlns:xlink="http://www.w3.org/1999/xlink" xml:space="preserve" xmlns:serif="http://www.serif.com/" style="fill-rule:evenodd;clip-rule:evenodd;stroke-linejoin:round;stroke-miterlimit:2;">
    <g transform="matrix(1,0,0,1,-1862.76,-2785.06)">
        <g transform="matrix(1,0,0,1,1353.52,2391.28)">
            <g transform="matrix(0.942006,0,0,0.934236,-4652.19,-2109.45)">
                <circle cx="5547" cy="2747.26" r="67.812" style="fill:rgb(10,152,133);fill-opacity:0.33;"/>
                <clipPath id="_clip1">
                    <circle cx="5547" cy="2747.26" r="67.812"/>
                </clipPath>
                <g clip-path="url(#_clip1)">
                    <g transform="matrix(0.642187,0,0,0.647528,5320.06,2215.83)">
                        <g transform="matrix(1,0,0,1,9.0468,0.500354)">
                            <g transform="matrix(0.307692,0,0,0.568381,143.346,399.434)">
                                <path d="M353.394,696.571C353.394,696.571 334.57,695.067 325.647,695.067C316.739,695.067 299.856,696.571 299.856,696.571L299.856,925.432L353.394,925.432L353.394,696.571Z" style="fill:rgb(10,152,133);"/>
                            </g>
                            <g transform="matrix(0.931843,0,0,4.17793,-32.2832,-2954.4)">
                                <rect x="287.487" y="903.107" width="17.678" height="9.223" style="fill:rgb(228,228,228);"/>
                            </g>
                            <g transform="matrix(0.931843,0,0,0.13931,-32.2832,689.626)">
                                <rect x="287.487" y="903.107" width="17.678" height="9.223" style="fill:rgb(228,228,228);"/>
                            </g>
                            <g transform="matrix(0.931843,0,0,0.13931,-32.2832,733.51)">
                                <rect x="287.487" y="903.107" width="17.678" height="9.223" style="fill:rgb(228,228,228);"/>
                            </g>
                        </g>
                        <g transform="matrix(1,0,0,1,9.0468,0.500354)">
                            <g transform="matrix(0.492308,0,0,0.568381,104.462,399.434)">
                                <path d="M353.394,696.571C353.394,696.571 333.987,695.067 325.064,695.067C316.646,695.067 299.856,696.571 299.856,696.571L299.856,925.432L353.394,925.432L353.394,696.571Z" style="fill:rgb(0,100,87);"/>
                            </g>
                            <g transform="matrix(1.49095,0,0,1,-176.545,-74.3485)">
                                <rect x="287.487" y="903.107" width="17.678" height="9.223" style="fill:rgb(3,3,3);"/>
                            </g>
                            <g transform="matrix(1.49095,0,0,1,-176.545,-17.0288)">
                                <rect x="287.487" y="903.107" width="17.678" height="9.223" style="fill:rgb(3,3,3);"/>
                            </g>
                        </g>
                        <g transform="matrix(1,0,0,1,9.0468,0.500354)">
                            <g transform="matrix(0.4,0,0,0.618767,158.498,352.806)">
                                <path d="M353.394,696.571C353.394,696.571 334.717,694.575 325.794,694.575C316.995,694.575 299.856,696.571 299.856,696.571L299.856,925.432L353.394,925.432L353.394,696.571Z" style="fill:rgb(198,220,217);"/>
                            </g>
                            <g transform="matrix(1.2114,0,0,0.237296,-69.8203,688.303)">
                                <rect x="287.487" y="903.107" width="17.678" height="9.223" style="fill-opacity:0.62;"/>
                            </g>
                            <g transform="matrix(1,0,0,1,-9.41566,1.77926)">
                                <circle cx="298.564" cy="893.715" r="3.452" style="fill-opacity:0.62;"/>
                            </g>
                            <g transform="matrix(1.2114,0,0,1,-69.8203,4.11103)">
                                <rect x="287.487" y="903.107" width="17.678" height="9.223" style="fill-opacity:0.62;"/>
                            </g>
                        </g>
                        <g transform="matrix(1.19862,0,0,1.19862,-249.817,54.7206)">
                            <g transform="matrix(1.07432,0,0,1.03044,-98.6479,-128.427)">
                                <path d="M559.757,646.02C559.757,646.02 548.848,644.303 543.284,644.303C537.61,644.303 525.712,646.02 525.712,646.02L525.712,830.005L559.757,830.005L559.757,646.02Z" style="fill:rgb(29,29,29);fill-opacity:0.33;"/>
                            </g>
                            <g transform="matrix(1,0,0,1.08587,-57.0453,-166.626)">
                                <rect x="523.182" y="665.272" width="36.575" height="8.593" style="fill:rgb(29,29,29);fill-opacity:0.33;"/>
                            </g>
                            <g transform="matrix(0.642731,0,0,13.5866,136.405,-8461.55)">
                                <rect x="523.182" y="665.272" width="36.575" height="8.593" style="fill:rgb(29,29,29);fill-opacity:0.33;"/>
                            </g>
                            <g transform="matrix(1,0,0,0.90632,-57.0453,102.044)">
                                <rect x="523.182" y="665.272" width="36.575" height="8.593" style="fill:rgb(29,29,29);fill-opacity:0.33;"/>
                            </g>
                            <g transform="matrix(1,0,0,0.130776,-56.777,627.809)">
                                <rect x="523.182" y="665.272" width="36.575" height="8.593" style="fill:rgb(29,29,29);fill-opacity:0.33;"/>
                            </g>
                            <g transform="matrix(1,0,0,0.130776,-56.7664,613.698)">
                                <rect x="523.182" y="665.272" width="36.575" height="8.593" style="fill:rgb(29,29,29);fill-opacity:0.33;"/>
                            </g>
                            <g transform="matrix(1,0,0,0.130776,-56.9778,463.698)">
                                <rect x="523.182" y="665.272" width="36.575" height="8.593" style="fill:rgb(29,29,29);fill-opacity:0.33;"/>
                            </g>
                            <g transform="matrix(1,0,0,0.130776,-56.5015,481.723)">
                                <rect x="523.182" y="665.272" width="36.575" height="8.593" style="fill:rgb(29,29,29);fill-opacity:0.33;"/>
                            </g>
                        </g>
                        <g transform="matrix(1.32552,-0.294984,0.20377,0.915647,-336.812,397.9)">
                            <g transform="matrix(1.07432,0,0,1.03044,-98.6479,-128.427)">
                                <path d="M559.757,646.02C559.757,646.02 548.848,644.303 543.284,644.303C537.61,644.303 525.712,646.02 525.712,646.02L525.712,830.005L559.757,830.005L559.757,646.02Z" style="fill:rgb(0,142,123);"/>
                            </g>
                            <g transform="matrix(1,0,0,1.08587,-57.0453,-166.626)">
                                <rect x="523.182" y="665.272" width="36.575" height="8.593" style="fill:white;"/>
                            </g>
                            <g transform="matrix(1,0,0,0.90632,-57.0453,102.044)">
                                <rect x="523.182" y="665.272" width="36.575" height="8.593" style="fill:white;"/>
                            </g>
                            <g transform="matrix(1,0,0,0.130776,-56.777,627.809)">
                                <rect x="523.182" y="665.272" width="36.575" height="8.593" style="fill:white;"/>
                            </g>
                            <g transform="matrix(1,0,0,0.130776,-56.7664,613.698)">
                                <rect x="523.182" y="665.272" width="36.575" height="8.593" style="fill:white;"/>
                            </g>
                            <g transform="matrix(1,0,0,0.130776,-56.9778,463.698)">
                                <rect x="523.182" y="665.272" width="36.575" height="8.593" style="fill:white;"/>
                            </g>
                            <g transform="matrix(1,0,0,0.130776,-56.5015,481.723)">
                                <rect x="523.182" y="665.272" width="36.575" height="8.593" style="fill:white;"/>
                            </g>
                        </g>
                        <g transform="matrix(1.01828,0,0,1.36219,-121.917,-64.1677)">
                            <g transform="matrix(1.07432,0,0,1.03044,-98.6479,-128.427)">
                                <path d="M559.757,646.02C559.757,646.02 548.848,644.303 543.284,644.303C537.61,644.303 525.712,646.02 525.712,646.02L525.712,830.005L559.757,830.005L559.757,646.02Z" style="fill:rgb(226,226,226);"/>
                            </g>
                            <g transform="matrix(0.584844,0,0,16.2949,167.817,-10267.8)">
                                <rect x="523.182" y="665.272" width="36.575" height="8.593" style="fill:rgb(10,152,133);"/>
                            </g>
                            <g transform="matrix(0.744238,0,0,1.06072,81.5093,12.0655)">
                                <rect x="523.182" y="665.272" width="36.575" height="8.593" style="fill:rgb(10,152,133);"/>
                            </g>
                        </g>
                    </g>
                </g>
            </g>
        </g>
    </g>
</svg>
