<?xml version="1.0" encoding="UTF-8" standalone="no"?>
<!DOCTYPE svg PUBLIC "-//W3C//DTD SVG 1.1//EN" "http://www.w3.org/Graphics/SVG/1.1/DTD/svg11.dtd">
<svg width="100%" height="100%" viewBox="0 0 120 127" version="1.1" xmlns="http://www.w3.org/2000/svg" xmlns:xlink="http://www.w3.org/1999/xlink" xml:space="preserve" xmlns:serif="http://www.serif.com/" style="fill-rule:evenodd;clip-rule:evenodd;stroke-linejoin:round;stroke-miterlimit:2;">
    <g transform="matrix(1,0,0,1,-2230.42,-2601.95)">
        <g transform="matrix(1,0,0,1,1353.52,2391.28)">
            <g transform="matrix(1.75882,0,0,1.75882,109.663,93.4734)">
                <g transform="matrix(2.77693,0,0.138231,1.05348,-830.468,-7.41587)">
                    <ellipse cx="457.727" cy="118.326" rx="7.4" ry="20.35" style="fill:rgb(10,152,133);"/>
                </g>
                <g transform="matrix(2.11456,0,-0.00524802,0.898396,-478.951,1.08731)">
                    <ellipse cx="457.727" cy="118.326" rx="7.4" ry="20.35" style="fill:rgb(10,152,133);"/>
                </g>
                <path d="M450.936,105.525C448.292,101.481 446.732,96.5 446.732,91.114C446.732,77.605 456.553,66.636 468.65,66.636C480.746,66.636 490.567,77.605 490.567,91.114C490.567,96.5 489.007,101.481 486.364,105.525C486.548,104.119 486.645,102.672 486.645,101.196C486.645,87.686 478.581,76.718 468.65,76.718C458.718,76.718 450.655,87.686 450.655,101.196C450.655,102.672 450.751,104.119 450.936,105.525Z" style="fill:rgb(10,152,133);"/>
                <g transform="matrix(0.46998,0,0,0.46998,429.468,-13.1619)">
                    <path d="M45.93,232.369C45.373,235.903 45.882,244.56 47.219,250.01C47.968,253.062 50.535,266.175 53.513,277.459C44.768,265.795 39.591,241.103 38.118,234.508C40.585,233.537 43.197,232.815 45.93,232.369Z" style="fill:white;"/>
                </g>
                <g transform="matrix(1.36547,0,-0.00337264,0.577354,-136.292,39.075)">
                    <ellipse cx="457.727" cy="118.326" rx="7.4" ry="20.35" style="fill:rgb(174,221,215);"/>
                </g>
            </g>
        </g>
    </g>
</svg>
