<?xml version="1.0" encoding="UTF-8" standalone="no"?>
<!DOCTYPE svg PUBLIC "-//W3C//DTD SVG 1.1//EN" "http://www.w3.org/Graphics/SVG/1.1/DTD/svg11.dtd">
<svg width="100%" height="100%" viewBox="0 0 113 113" version="1.1" xmlns="http://www.w3.org/2000/svg" xmlns:xlink="http://www.w3.org/1999/xlink" xml:space="preserve" xmlns:serif="http://www.serif.com/" style="fill-rule:evenodd;clip-rule:evenodd;stroke-linecap:round;stroke-linejoin:round;stroke-miterlimit:1.5;">
    <g transform="matrix(1,0,0,1,-2053.89,-2600.84)">
        <g transform="matrix(1,0,0,1,1353.52,2391.28)">
            <g transform="matrix(0.607453,0,0,0.607453,622.348,-186.059)">
                <circle cx="220.892" cy="743.732" r="92.455" style="fill:rgb(10,152,133);"/>
                <clipPath id="_clip1">
                    <circle cx="220.892" cy="743.732" r="92.455"/>
                </clipPath>
                <g clip-path="url(#_clip1)">
                    <g>
                        <g transform="matrix(1,0,0,1,2.84217e-14,128.768)">
                            <circle cx="220.892" cy="743.732" r="92.455" style="fill:none;stroke:rgb(230,230,230);stroke-width:11.52px;"/>
                        </g>
                        <path d="M128.437,743.732L313.347,743.732" style="fill:none;stroke:rgb(230,230,230);stroke-width:11.52px;"/>
                        <g transform="matrix(1,0,0,-1,-2.84217e-14,1354.04)">
                            <circle cx="220.892" cy="743.732" r="92.455" style="fill:none;stroke:rgb(230,230,230);stroke-width:11.52px;"/>
                        </g>
                        <g transform="matrix(0.684834,0,0,1,69.6176,0)">
                            <circle cx="220.892" cy="743.732" r="92.455" style="fill:none;stroke:rgb(230,230,230);stroke-width:13.42px;"/>
                        </g>
                        <g transform="matrix(0.289529,0,0,1,156.937,0)">
                            <circle cx="220.892" cy="743.732" r="92.455" style="fill:none;stroke:rgb(230,230,230);stroke-width:15.63px;"/>
                        </g>
                    </g>
                </g>
            </g>
        </g>
    </g>
</svg>
