<?xml version="1.0" encoding="UTF-8" standalone="no"?>
<!DOCTYPE svg PUBLIC "-//W3C//DTD SVG 1.1//EN" "http://www.w3.org/Graphics/SVG/1.1/DTD/svg11.dtd">
<svg width="100%" height="100%" viewBox="0 0 40 41" version="1.1" xmlns="http://www.w3.org/2000/svg" xmlns:xlink="http://www.w3.org/1999/xlink" xml:space="preserve" xmlns:serif="http://www.serif.com/" style="fill-rule:evenodd;clip-rule:evenodd;stroke-linejoin:round;stroke-miterlimit:2;">
    <g transform="matrix(1,0,0,1,-2169.64,-5206.16)">
        <g transform="matrix(1,0,0,1,1353.52,4768.66)">
            <g transform="matrix(1,0,0,1,-1353.56,-4809.7)">
                <path d="M2188.49,5287.25C2178,5286.64 2169.68,5277.9 2169.68,5267.24C2169.68,5256.18 2178.64,5247.19 2189.68,5247.19C2200.72,5247.19 2209.68,5256.18 2209.68,5267.24C2209.68,5276.37 2203.57,5284.08 2195.24,5286.5L2195.24,5270.78L2199.88,5270.78L2200.61,5263.87L2195.24,5263.87L2195.24,5260.93C2195.25,5260.65 2195.23,5260.48 2195.43,5260.13C2195.51,5259.97 2195.69,5259.91 2195.9,5259.9L2200.61,5259.9L2200.61,5254.15L2193.42,5254.15C2190.7,5254.15 2188.49,5256.48 2188.49,5259.36L2188.49,5263.87L2184.94,5263.87L2184.94,5270.78L2188.49,5270.78L2188.49,5287.25C2188.88,5287.28 2188.49,5287.25 2188.49,5287.25Z" style="fill:rgb(10,152,133);"/>
            </g>
        </g>
    </g>
</svg>
