<?xml version="1.0" encoding="UTF-8" standalone="no"?>
<!DOCTYPE svg PUBLIC "-//W3C//DTD SVG 1.1//EN" "http://www.w3.org/Graphics/SVG/1.1/DTD/svg11.dtd">
<svg width="100%" height="100%" viewBox="0 0 40 41" version="1.1" xmlns="http://www.w3.org/2000/svg" xmlns:xlink="http://www.w3.org/1999/xlink" xml:space="preserve" xmlns:serif="http://www.serif.com/" style="fill-rule:evenodd;clip-rule:evenodd;stroke-linejoin:round;stroke-miterlimit:2;">
    <g transform="matrix(1,0,0,1,-2235.15,-5206.13)">
        <g transform="matrix(1,0,0,1,1353.52,4768.66)">
            <g transform="matrix(1,0,0,1,-1353.56,-4809.72)">
                <path d="M2255.18,5247.19C2266.22,5247.19 2275.18,5256.18 2275.18,5267.24C2275.18,5278.3 2266.22,5287.29 2255.18,5287.29C2244.14,5287.29 2235.18,5278.3 2235.18,5267.24C2235.18,5256.18 2244.14,5247.19 2255.18,5247.19ZM2267.42,5259.69C2267.42,5257.07 2265.29,5254.94 2262.68,5254.94L2247.69,5254.94C2245.07,5254.94 2242.95,5257.07 2242.95,5259.69L2242.95,5274.8C2242.95,5277.41 2245.07,5279.54 2247.69,5279.54L2262.68,5279.54C2265.29,5279.54 2267.42,5277.41 2267.42,5274.8L2267.42,5259.69ZM2265.27,5260.03C2265.27,5258.41 2263.96,5257.1 2262.34,5257.1L2248.02,5257.1C2246.41,5257.1 2245.1,5258.41 2245.1,5260.03L2245.1,5274.45C2245.1,5276.07 2246.41,5277.38 2248.02,5277.38L2262.34,5277.38C2263.96,5277.38 2265.27,5276.07 2265.27,5274.45L2265.27,5260.03ZM2255.13,5260.5C2258.77,5260.5 2261.73,5263.47 2261.73,5267.11C2261.73,5270.76 2258.77,5273.72 2255.13,5273.72C2251.48,5273.72 2248.52,5270.76 2248.52,5267.11C2248.52,5263.47 2251.48,5260.5 2255.13,5260.5ZM2255.13,5262.92C2257.44,5262.92 2259.32,5264.8 2259.32,5267.11C2259.32,5269.43 2257.44,5271.31 2255.13,5271.31C2252.81,5271.31 2250.93,5269.43 2250.93,5267.11C2250.93,5264.8 2252.81,5262.92 2255.13,5262.92ZM2261.98,5258.86C2262.88,5258.86 2263.62,5259.6 2263.62,5260.5C2263.62,5261.41 2262.88,5262.14 2261.98,5262.14C2261.07,5262.14 2260.34,5261.41 2260.34,5260.5C2260.34,5259.6 2261.07,5258.86 2261.98,5258.86Z" style="fill:rgb(10,152,133);"/>
            </g>
        </g>
    </g>
</svg>
