<?xml version="1.0" encoding="UTF-8" standalone="no"?>
<!DOCTYPE svg PUBLIC "-//W3C//DTD SVG 1.1//EN" "http://www.w3.org/Graphics/SVG/1.1/DTD/svg11.dtd">
<svg width="100%" height="100%" viewBox="0 0 40 40" version="1.1" xmlns="http://www.w3.org/2000/svg" xmlns:xlink="http://www.w3.org/1999/xlink" xml:space="preserve" xmlns:serif="http://www.serif.com/" style="fill-rule:evenodd;clip-rule:evenodd;stroke-linejoin:round;stroke-miterlimit:2;">
    <g transform="matrix(1,0,0,1,-2300.98,-5206.56)">
        <g transform="matrix(1,0,0,1,1353.52,4768.66)">
            <g transform="matrix(1,0,0,1,-1303.63,-4827.51)">
                <path d="M2270.92,5265.4C2281.87,5265.4 2290.76,5274.29 2290.76,5285.24C2290.76,5296.19 2281.87,5305.07 2270.92,5305.07C2259.97,5305.07 2251.09,5296.19 2251.09,5285.24C2251.09,5274.29 2259.97,5265.4 2270.92,5265.4ZM2282.63,5277.85C2281.68,5276.83 2280.33,5276.19 2278.83,5276.19L2263.02,5276.19C2261.52,5276.19 2260.16,5276.83 2259.22,5277.85L2259.21,5277.86C2259.2,5277.87 2259.19,5277.87 2259.19,5277.88L2259.17,5277.91C2258.34,5278.82 2257.84,5280.04 2257.84,5281.37C2257.84,5281.37 2257.84,5289.11 2257.84,5289.11C2257.84,5291.97 2260.16,5294.29 2263.02,5294.29C2263.02,5294.29 2278.83,5294.29 2278.83,5294.29C2281.69,5294.29 2284.01,5291.97 2284.01,5289.11L2284.01,5281.37C2284.01,5280.04 2283.5,5278.82 2282.68,5277.91L2282.66,5277.88C2282.65,5277.87 2282.64,5277.87 2282.64,5277.86L2282.63,5277.85ZM2260.57,5280.6L2270.18,5286.92C2270.22,5286.94 2270.26,5286.97 2270.3,5286.99C2270.5,5287.09 2270.71,5287.15 2270.92,5287.15C2271.13,5287.15 2271.35,5287.09 2271.54,5286.99C2271.58,5286.97 2271.62,5286.94 2271.66,5286.92L2281.27,5280.6C2281.35,5280.84 2281.39,5281.1 2281.39,5281.37L2281.39,5289.11C2281.39,5290.52 2280.24,5291.67 2278.83,5291.67L2263.02,5291.67C2261.6,5291.67 2260.46,5290.52 2260.46,5289.11L2260.46,5281.37C2260.46,5281.1 2260.5,5280.84 2260.57,5280.6ZM2262.66,5278.83C2262.77,5278.82 2262.89,5278.81 2263.02,5278.81C2263.02,5278.81 2278.83,5278.81 2278.83,5278.81C2278.95,5278.81 2279.07,5278.82 2279.19,5278.83L2270.92,5284.27L2262.66,5278.83Z" style="fill:rgb(10,152,133);"/>
            </g>
        </g>
    </g>
</svg>
