<?xml version="1.0" encoding="UTF-8" standalone="no"?>
<!DOCTYPE svg PUBLIC "-//W3C//DTD SVG 1.1//EN" "http://www.w3.org/Graphics/SVG/1.1/DTD/svg11.dtd">
<svg width="100%" height="100%" viewBox="0 0 41 41" version="1.1" xmlns="http://www.w3.org/2000/svg" xmlns:xlink="http://www.w3.org/1999/xlink" xml:space="preserve" xmlns:serif="http://www.serif.com/" style="fill-rule:evenodd;clip-rule:evenodd;stroke-linejoin:round;stroke-miterlimit:2;">
    <g transform="matrix(1,0,0,1,-2366.82,-5206.16)">
        <g transform="matrix(1,0,0,1,1353.52,4768.66)">
            <g transform="matrix(1,0,0,1,-1353.56,-4809.7)">
                <path d="M2386.9,5247.19C2397.96,5247.19 2406.95,5256.18 2406.95,5267.24C2406.95,5278.3 2397.96,5287.29 2386.9,5287.29C2375.84,5287.29 2366.85,5278.3 2366.85,5267.24C2366.85,5256.18 2375.84,5247.19 2386.9,5247.19ZM2380.49,5265.31C2380.49,5266.16 2382.21,5268.39 2383.85,5270.03C2385.49,5271.67 2389.87,5273.73 2390.88,5273.48C2391.89,5273.22 2392.57,5270.84 2393.49,5270.56C2394.14,5270.36 2395.33,5270.89 2396.93,5271.58C2398.4,5272.22 2400.2,5272.92 2400.22,5273.69C2400.26,5275.29 2399.63,5279.66 2395.21,5279.54C2390.79,5279.41 2385.7,5278.74 2381.28,5274.4C2376.87,5270.07 2373.46,5265.21 2373.58,5261.76C2373.71,5258.31 2374.55,5255.03 2377.75,5254.94C2379.46,5254.9 2380.44,5256.67 2381.2,5258.46C2381.86,5260.02 2382.41,5261.59 2382.34,5261.93C2382.17,5262.64 2380.49,5264.47 2380.49,5265.31Z" style="fill:rgb(10,152,133);"/>
            </g>
        </g>
    </g>
</svg>
