<?xml version="1.0" encoding="UTF-8" standalone="no"?>
<!DOCTYPE svg PUBLIC "-//W3C//DTD SVG 1.1//EN" "http://www.w3.org/Graphics/SVG/1.1/DTD/svg11.dtd">
<svg width="100%" height="100%" viewBox="0 0 30 30" version="1.1" xmlns="http://www.w3.org/2000/svg" xmlns:xlink="http://www.w3.org/1999/xlink" xml:space="preserve" xmlns:serif="http://www.serif.com/" style="fill-rule:evenodd;clip-rule:evenodd;stroke-linejoin:round;stroke-miterlimit:2;">
    <g transform="matrix(1,0,0,1,-2003.02,-1182.15)">
        <g transform="matrix(1,0,0,1,1353.52,813.357)">
            <g transform="matrix(1.87783,0,0,1.87783,-520.202,-105.053)">
                <g transform="matrix(0.293892,0,0,0.277173,-435.539,-34.0959)">
                    <path d="M3628.59,1043.17C3618.7,1043.17 3610.67,1051.69 3610.67,1062.18C3610.67,1072.67 3618.7,1081.19 3628.59,1081.19C3638.49,1081.19 3646.52,1072.67 3646.52,1062.18C3646.52,1051.69 3638.49,1043.17 3628.59,1043.17ZM3628.59,1045.21C3637.43,1045.21 3644.6,1052.82 3644.6,1062.18C3644.6,1071.55 3637.43,1079.15 3628.59,1079.15C3619.76,1079.15 3612.59,1071.55 3612.59,1062.18C3612.59,1052.82 3619.76,1045.21 3628.59,1045.21Z"/>
                </g>
                <g transform="matrix(0.479673,0,0,0.452386,-1109.66,-220.204)">
                    <path d="M3628.59,1044.55C3619.42,1044.55 3611.97,1052.45 3611.97,1062.18C3611.97,1071.91 3619.42,1079.81 3628.59,1079.81C3637.77,1079.81 3645.22,1071.91 3645.22,1062.18C3645.22,1052.45 3637.77,1044.55 3628.59,1044.55ZM3628.59,1045.21C3637.43,1045.21 3644.6,1052.82 3644.6,1062.18C3644.6,1071.55 3637.43,1079.15 3628.59,1079.15C3619.76,1079.15 3612.59,1071.55 3612.59,1062.18C3612.59,1052.82 3619.76,1045.21 3628.59,1045.21Z"/>
                </g>
            </g>
        </g>
    </g>
</svg>
